<?xml version="1.0" encoding="UTF-8" standalone="no"?>
<svg
   xmlns:dc="http://purl.org/dc/elements/1.1/"
   xmlns:cc="http://creativecommons.org/ns#"
   xmlns:rdf="http://www.w3.org/1999/02/22-rdf-syntax-ns#"
   xmlns:svg="http://www.w3.org/2000/svg"
   xmlns="http://www.w3.org/2000/svg"
   viewBox="0 0 533.33331 84.68"
   height="84.68"
   width="533.33331"
   xml:space="preserve"
   id="svg2"
   version="1.1"><metadata
     id="metadata8"><rdf:RDF><cc:Work
         rdf:about=""><dc:format>image/svg+xml</dc:format><dc:type
           rdf:resource="http://purl.org/dc/dcmitype/StillImage" /></cc:Work></rdf:RDF></metadata><defs
     id="defs6" /><g
     transform="matrix(1.3333333,0,0,-1.3333333,0,84.68)"
     id="g10"><g
       transform="scale(0.1)"
       id="g12"><path
         id="path14"
         style="fill:#ffffff;fill-opacity:1;fill-rule:nonzero;stroke:none"
         d="m 886.883,347.191 c 0,-36.336 -9.223,-61.214 -28.195,-76.054 -16.34,-12.782 -39.977,-18.735 -74.395,-18.735 h -57.91 v 184.614 h 57.91 c 69.031,0 102.59,-29.383 102.59,-89.825 z m 35.816,122.329 c -34.062,25.796 -83.015,38.878 -145.496,38.878 H 640.102 V 0.898438 h 86.281 V 180.309 h 52.238 c 60.535,0 108.262,12.839 141.844,38.16 37.789,28.492 56.949,72.039 56.949,129.429 0,53.204 -18.41,94.122 -54.715,121.622" /><path
         id="path16"
         style="fill:#ffffff;fill-opacity:1;fill-rule:nonzero;stroke:none"
         d="m 1209.77,402.031 c -23.99,0 -45.35,-7.59 -63.46,-22.554 -10.59,-8.75 -20.12,-20.098 -28.5,-33.907 l -5.22,47.95 h -74.67 V 0.898438 h 84.15 V 228.313 c 5.77,22.789 27.45,90.984 79.9,90.984 12.35,0 19.34,-1.227 30.33,-3.973 l 9.72,-2.429 15.57,82.433 -8.65,2.164 c -11.54,2.883 -25.81,4.539 -39.17,4.539" /><path
         id="path18"
         style="fill:#ffffff;fill-opacity:1;fill-rule:nonzero;stroke:none"
         d="m 1437.4,72.2852 c -58.54,0 -86.99,43.5308 -86.99,133.0778 0,46.012 7.89,80.633 23.47,102.903 14.53,20.785 35.54,30.886 64.22,30.886 28.26,0 48.94,-10.058 63.23,-30.754 15.29,-22.152 23.05,-56.582 23.05,-102.324 0,-90.027 -28.45,-133.7888 -86.98,-133.7888 z m 0.7,338.2538 c -54.22,0 -99.47,-20.035 -130.84,-57.941 -30.07,-36.325 -45.97,-87.235 -45.97,-147.235 0,-61.074 15.78,-112.2458 45.64,-147.9763 30.88,-36.9531 75.99,-56.488262 130.47,-56.488262 53.91,0 98.95,20.039062 130.23,57.953162 30.01,36.3593 45.87,87.2654 45.87,147.2224 0,61.129 -15.66,112.293 -45.26,147.953 -30.7,36.969 -75.7,56.512 -130.14,56.512" /><path
         id="path20"
         style="fill:#ffffff;fill-opacity:1;fill-rule:nonzero;stroke:none"
         d="m 1860.75,88.6094 c -16.98,-10.4492 -30.34,-14.9063 -44.68,-14.9063 -22.31,0 -35.22,7.5039 -35.22,45.8559 V 333.48 h 85.14 l 10.78,68.551 h -95.92 v 93.383 l -84.15,-10.062 v -83.321 h -59.57 V 333.48 h 59.57 V 118.852 c 0,-74.9614 40.15,-117.953562 110.15,-117.953562 34.04,0 65.78,9.738262 89.35,27.417962 l 6.6,4.9492 -33.63,60.5274 -8.42,-5.1836" /><path
         id="path22"
         style="fill:#ffffff;fill-opacity:1;fill-rule:nonzero;stroke:none"
         d="m 2085.54,72.2852 c -58.54,0 -86.99,43.5308 -86.99,133.0778 0,46.012 7.9,80.633 23.47,102.903 14.53,20.785 35.54,30.886 64.23,30.886 28.25,0 48.93,-10.058 63.22,-30.754 15.3,-22.152 23.05,-56.582 23.05,-102.324 0,-90.027 -28.45,-133.7888 -86.98,-133.7888 z m 0.71,338.2538 c -54.23,0 -99.48,-20.035 -130.85,-57.941 -30.07,-36.325 -45.96,-87.235 -45.96,-147.235 0,-61.074 15.78,-112.2458 45.63,-147.9763 30.88,-36.9531 75.99,-56.488262 130.47,-56.488262 53.92,0 98.95,20.039062 130.24,57.953162 30,36.3593 45.86,87.2654 45.86,147.2224 0,61.129 -15.65,112.293 -45.26,147.953 -30.7,36.969 -75.7,56.512 -130.13,56.512" /><path
         id="path24"
         style="fill:#ffffff;fill-opacity:1;fill-rule:nonzero;stroke:none"
         d="m 2529.45,402.031 c -40.78,0 -81.24,-17.218 -111.78,-46.871 l -3.73,38.36 h -74.06 V 0.898438 h 84.15 V 278.277 c 12.68,17.914 43.12,53.786 83.44,53.786 36.41,0 48.69,-13.719 48.69,-54.368 V 0.898438 h 84.15 V 281.949 c 0,38.664 -8.46,67.297 -25.86,87.539 -18.57,21.594 -47.16,32.543 -85,32.543" /><path
         id="path26"
         style="fill:#ffffff;fill-opacity:1;fill-rule:nonzero;stroke:none"
         d="M 3066.25,508.398 2968.27,170.84 2866.93,508.398 h -106.5 L 2718.44,0.898438 h 82.85 L 2821.1,259.934 c 2.86,36.347 4.57,79.968 5.5,113.461 L 2927.42,52.6641 h 78.49 l 96.91,320.3089 c 1.19,-31.856 3.26,-73.868 6.49,-113.098 L 3131.32,0.898438 h 84.2 L 3173.53,508.398 h -107.28" /><path
         id="path28"
         style="fill:#ffffff;fill-opacity:1;fill-rule:nonzero;stroke:none"
         d="m 3482.98,193.781 v -79.879 c -20.3,-29.9723 -45.73,-45.1637 -75.64,-45.1637 -40.59,0 -57.91,17.957 -57.91,60.0387 0,21.094 6.58,36.383 20.13,46.739 15.86,12.121 42.17,18.265 78.2,18.265 z m 84.15,-90.531 v 175.863 c 0,59.957 -25.26,131.426 -145.61,131.426 -40.6,0 -83.7,-8.309 -128.08,-24.695 l -8.74,-3.227 23.26,-65.918 8.91,3.137 c 33.62,11.824 68.14,18.609 94.73,18.609 51.37,0 71.38,-17.629 71.38,-62.879 v -19.617 h -38.76 c -58.33,0 -104.04,-11.09 -135.84,-32.953 -32.37,-22.258 -49.48,-55.816 -49.48,-97.055 0,-75.9605 51.31,-125.042562 130.71,-125.042562 24.41,0 46.89,4.644532 66.8,13.804662 15.99,7.3594 30.04,17.5 41.95,30.2461 13.42,-25.2422 36.53,-39.67967 70.17,-43.976544 L 3576.17,0 l 21.11,61.3984 -8.66,3.2071 c -14.86,5.5 -21.49,12.3867 -21.49,38.6445" /><path
         id="path30"
         style="fill:#ffffff;fill-opacity:1;fill-rule:nonzero;stroke:none"
         d="m 3709.42,567.258 c -15.39,0 -29.4,-5.473 -39.44,-15.41 -9.93,-9.817 -15.4,-23.317 -15.4,-38.012 0,-31.363 23.07,-54.129 54.84,-54.129 15.45,0 29.58,5.488 39.77,15.461 10.18,9.957 15.78,23.687 15.78,38.668 0,30.457 -23.88,53.422 -55.55,53.422" /><path
         id="path32"
         style="fill:#ffffff;fill-opacity:1;fill-rule:nonzero;stroke:none"
         d="m 3667.35,0.898438 h 84.15 V 393.52 h -84.15 V 0.898438" /><path
         id="path34"
         style="fill:#ffffff;fill-opacity:1;fill-rule:nonzero;stroke:none"
         d="m 3976.55,80.8711 -8.98,-3.5898 c -6.02,-2.4102 -12.75,-3.5782 -20.59,-3.5782 -7.18,0 -13.95,0 -13.95,20.3282 V 561.363 l -84.15,-10.062 V 99.7031 c 0,-32.8867 8.11,-58.1523 24.12,-75.0976 14.86,-15.7305 35.69,-23.707062 61.92,-23.707062 19,0 38.27,4.605472 57.26,13.691362 l 7.82,3.7344 -23.45,62.5469" /><path
         id="path36"
         style="fill:#ffffff;fill-opacity:1;fill-rule:nonzero;stroke:none"
         d="M 353.797,356.602 H 97.5664 v 77.058 c 25.9996,103.063 128.1176,104.481 128.1176,104.481 0,0 102.113,-1.418 128.113,-104.481 z M 225.684,635.055 c 0,0 -187.0981,6.144 -225.684,-201.395 V 292.309 c 0,0 1.59766,-15.129 44.1445,-45.86 42.5469,-30.726 152.6995,-117.242 181.5395,-117.242 28.836,0 138.988,86.516 181.535,117.242 42.547,30.731 44.144,45.86 44.144,45.86 V 433.66 C 412.773,641.199 225.684,635.055 225.684,635.055" /><path
         id="path38"
         style="fill:#ffffff;fill-opacity:1;fill-rule:nonzero;stroke:none"
         d="m 225.684,97.375 c 0,0 -28.996,2.84 -51.692,18.598 C 151.301,131.727 0,239.832 0,239.832 v -214 c 0,0 1.28125,-24.898406 28.7031,-24.898406 27.418,0 196.9809,0 196.9809,0 0,0 169.558,0 196.976,0 27.422,0 28.703,24.898406 28.703,24.898406 v 214 c 0,0 -151.3,-108.105 -173.996,-123.859 -22.691,-15.758 -51.683,-18.598 -51.683,-18.598" /></g></g></svg>