<?xml version="1.0" encoding="utf-8"?>
<!-- Generator: Adobe Illustrator 23.0.3, SVG Export Plug-In . SVG Version: 6.00 Build 0)  -->
<svg version="1.1" id="Layer_1" xmlns="http://www.w3.org/2000/svg" xmlns:xlink="http://www.w3.org/1999/xlink" x="0px" y="0px"
	 viewBox="0 0 371.8 145.7" style="enable-background:new 0 0 371.8 145.7;" xml:space="preserve">
<style type="text/css">
	.st0{fill:#31BCAF;}
	.st1{fill:#29998B;}
	.st2{opacity:7.000000e-02;}
	.st3{fill:#FFFFFF;}
</style>
<g>
	<path class="st0" d="M39,49.8c0-13.9,11.4-25.3,25.3-25.3h0c13.9,0,25.3,11.4,25.3,25.3v15.1h16V49.8c0-22.8-18.5-41.3-41.3-41.3
		S23,27.1,23,49.8v15.1h16V49.8z"/>
	<g>
		<path class="st1" d="M113.1,110.9v14.9c0,1.4-1.1,2.5-2.5,2.5H104v0c0-0.1-0.1-0.2-0.2-0.2h-2c-0.1,0-0.2,0.1-0.2,0.2v0h-29
			C87.8,125.2,101.6,119.2,113.1,110.9z"/>
		<path class="st0" d="M104,128.2L104,128.2l-2.5,0v0c0-0.1,0.1-0.2,0.2-0.2h2C103.9,127.9,104,128,104,128.2z"/>
		<path class="st0" d="M113.1,67.3v43.5c-11.5,8.3-25.3,14.3-40.5,17.3H17.9c-1.4,0-2.5-1.1-2.5-2.5V67.3c0-1.4,1.1-2.5,2.5-2.5
			h92.7C112,64.9,113.1,66,113.1,67.3z"/>
		<g>
			<path class="st0" d="M26.8,129.5h-2c-0.1,0-0.2-0.1-0.2-0.2v-1.1c0-0.1,0.1-0.2,0.2-0.2h2c0.1,0,0.2,0.1,0.2,0.2v1.1
				C27,129.4,26.9,129.5,26.8,129.5z"/>
			<path class="st0" d="M104,128.2v1.1c0,0.1-0.1,0.2-0.2,0.2h-2c-0.1,0-0.2-0.1-0.2-0.2v-1.1c0-0.1,0.1-0.2,0.2-0.2h2
				C103.9,127.9,104,128,104,128.2z"/>
		</g>
	</g>
</g>
<g class="st2">
	<path class="st3" d="M105.5,49.8v15.1h-16V49.8c0-6.9-2.8-13.3-7.4-17.8s-10.9-7.4-17.9-7.4C50.4,24.5,39,35.9,39,49.8v15.1H23
		V49.8C23,27,41.5,8.5,64.3,8.5C87,8.5,105.5,27,105.5,49.8z"/>
	<g>
		<path class="st3" d="M27,128.2L27,128.2l-2.5,0v0c0-0.1,0.1-0.2,0.2-0.2h2C26.9,127.9,27,128,27,128.2z"/>
		<path class="st3" d="M104,128.2L104,128.2l-2.5,0v0c0-0.1,0.1-0.2,0.2-0.2h2C103.9,127.9,104,128,104,128.2z"/>
		<path class="st3" d="M106.3,64.9c-17,23.4-47.5,38.9-82.3,38.9c-2.9,0-5.8-0.1-8.6-0.3V67.3c0-1.4,1.1-2.5,2.5-2.5H106.3z"/>
		<g>
			<path class="st3" d="M27,128.2v1.1c0,0.1-0.1,0.2-0.2,0.2h-2c-0.1,0-0.2-0.1-0.2-0.2v-1.1c0-0.1,0.1-0.2,0.2-0.2h2
				C26.9,127.9,27,128,27,128.2z"/>
			<path class="st3" d="M104,128.2v1.1c0,0.1-0.1,0.2-0.2,0.2h-2c-0.1,0-0.2-0.1-0.2-0.2v-1.1c0-0.1,0.1-0.2,0.2-0.2h2
				C103.9,127.9,104,128,104,128.2z"/>
		</g>
	</g>
</g>
<g>
	<g>
		<g>
			<g>
				<g>
					<path class="st3" d="M30.8,93.3c-0.1,0-0.2-0.1-0.1-0.2l0.7-0.9c0.1-0.1,0.2-0.2,0.4-0.2h12.4c0.1,0,0.2,0.1,0.1,0.2l-0.6,0.9
						c-0.1,0.1-0.2,0.2-0.3,0.2L30.8,93.3z"/>
				</g>
			</g>
		</g>
		<g>
			<g>
				<g>
					<path class="st3" d="M25.6,96.5c-0.1,0-0.2-0.1-0.1-0.2l0.7-0.9c0.1-0.1,0.2-0.2,0.4-0.2h15.8c0.1,0,0.2,0.1,0.2,0.2l-0.3,0.8
						c0,0.1-0.2,0.2-0.3,0.2L25.6,96.5z"/>
				</g>
			</g>
		</g>
		<g>
			<g>
				<g>
					<path class="st3" d="M34,99.7c-0.1,0-0.2-0.1-0.1-0.2l0.5-0.9c0.1-0.1,0.2-0.2,0.3-0.2h6.9c0.1,0,0.2,0.1,0.2,0.2l-0.1,0.8
						c0,0.1-0.1,0.2-0.2,0.2L34,99.7z"/>
				</g>
			</g>
		</g>
		<g>
			<g id="CXHf1q_1_">
				<g>
					<g>
						<path class="st3" d="M70,92.7c-2.2,0.6-3.7,1-5.8,1.5c-0.5,0.1-0.6,0.2-1-0.3c-0.5-0.6-0.9-1-1.6-1.3
							c-2.2-1.1-4.3-0.8-6.3,0.5c-2.4,1.5-3.6,3.8-3.5,6.6c0,2.8,1.9,5.1,4.7,5.5c2.4,0.3,4.3-0.5,5.9-2.3c0.3-0.4,0.6-0.8,0.9-1.3
							c-1.3,0-2.8,0-6.7,0c-0.7,0-0.9-0.5-0.7-1c0.5-1.1,1.3-2.9,1.8-3.8c0.1-0.2,0.3-0.6,0.9-0.6c1.8,0,8.3,0,12.6,0
							c-0.1,0.9-0.1,1.9-0.2,2.8c-0.4,2.5-1.3,4.8-2.8,6.8c-2.5,3.3-5.8,5.3-9.9,5.9c-3.4,0.5-6.6-0.2-9.3-2.3
							c-2.6-1.9-4-4.5-4.4-7.7c-0.5-3.8,0.7-7.2,3-10.2c2.5-3.2,5.7-5.3,9.7-6c3.3-0.6,6.4-0.2,9.2,1.7c1.8,1.2,3.2,2.9,4,4.9
							C70.6,92.4,70.4,92.6,70,92.7z"/>
					</g>
					<g>
						<path class="st3" d="M81.5,111.9c-3.2-0.1-6-1-8.5-3.1c-2-1.8-3.3-4-3.8-6.7c-0.6-3.9,0.5-7.4,2.8-10.5
							c2.5-3.3,5.6-5.1,9.7-5.8c3.5-0.6,6.9-0.3,9.9,1.8c2.7,1.9,4.4,4.4,4.9,7.7c0.6,4.7-0.8,8.5-4,11.8c-2.3,2.3-5.1,3.8-8.3,4.4
							C83.3,111.8,82.4,111.8,81.5,111.9z M89.8,97.9c0-0.5,0-0.8-0.1-1.1c-0.6-3.4-3.8-5.4-7.1-4.6c-3.2,0.7-5.3,2.8-6.1,6
							c-0.6,2.7,0.7,5.5,3.2,6.6c1.9,0.8,3.8,0.7,5.7-0.2C88.1,103.1,89.6,100.9,89.8,97.9z"/>
					</g>
				</g>
			</g>
		</g>
	</g>
</g>
<g>
	<path class="st1" d="M163.7,93.7c-1,1.3-2.5,2.5-4.6,3.5c-2,1-4.6,1.5-7.8,1.5c-4,0-7.2-1.2-9.7-3.7c-2.5-2.5-3.8-5.7-3.8-9.7v-6.8
		c0-4,1.2-7.2,3.7-9.7s5.6-3.7,9.4-3.7c4,0,7.1,0.9,9.2,2.8c2.1,1.9,3.2,4.4,3.1,7.6l0,0.1H157c0-1.7-0.5-3.1-1.5-4.1
		c-1-1-2.5-1.5-4.4-1.5c-2,0-3.6,0.8-4.9,2.3c-1.2,1.6-1.8,3.6-1.8,6v6.9c0,2.5,0.6,4.5,1.9,6.1c1.3,1.6,2.9,2.3,5.1,2.3
		c1.6,0,2.8-0.2,3.7-0.5c0.9-0.3,1.6-0.7,2.1-1.2v-6.3h-6.3v-4.5h12.9V93.7z"/>
	<path class="st1" d="M167.8,85.8c0-3.6,1-6.6,3-8.9c2-2.3,4.8-3.5,8.4-3.5c3.6,0,6.4,1.2,8.5,3.5c2,2.3,3.1,5.3,3.1,8.9v0.5
		c0,3.7-1,6.6-3.1,8.9c-2,2.3-4.8,3.5-8.4,3.5c-3.6,0-6.4-1.2-8.5-3.5c-2-2.3-3.1-5.3-3.1-8.9V85.8z M174.3,86.3
		c0,2.2,0.4,4,1.2,5.3c0.8,1.3,2,2,3.8,2c1.7,0,2.9-0.7,3.7-2c0.8-1.4,1.2-3.1,1.2-5.3v-0.5c0-2.2-0.4-3.9-1.2-5.3
		c-0.8-1.4-2-2-3.8-2c-1.7,0-2.9,0.7-3.7,2.1c-0.8,1.4-1.2,3.1-1.2,5.3V86.3z"/>
	<path class="st1" d="M216.8,86.7c0,3.6-0.8,6.5-2.5,8.7c-1.7,2.2-4,3.3-7,3.3c-1.3,0-2.4-0.2-3.4-0.7c-1-0.5-1.8-1.2-2.5-2.1v11.7
		h-6.6V73.9h5.9l0.4,2.9c0.7-1.1,1.6-1.9,2.6-2.5c1-0.6,2.2-0.9,3.5-0.9c3,0,5.4,1.2,7,3.5c1.7,2.4,2.5,5.5,2.5,9.3V86.7z
		 M210.2,86.2c0-2.3-0.4-4.2-1.1-5.6c-0.8-1.4-1.9-2.1-3.5-2.1c-1,0-1.8,0.2-2.5,0.6s-1.2,1-1.7,1.7v10.7c0.4,0.7,1,1.2,1.7,1.6
		c0.7,0.4,1.6,0.5,2.6,0.5c1.6,0,2.8-0.6,3.5-1.9c0.7-1.2,1.1-2.9,1.1-5.1V86.2z"/>
	<path class="st1" d="M231.4,98.7c-3.6,0-6.5-1.1-8.5-3.3c-2-2.2-3.1-5.1-3.1-8.6v-0.9c0-3.6,1-6.6,3-9c2-2.3,4.7-3.5,8.2-3.5
		c3.3,0,5.8,1,7.5,3c1.7,2,2.6,4.7,2.6,8.1v3.4h-14.5l-0.1,0.1c0.1,1.7,0.6,3,1.5,4.1c0.9,1,2.3,1.6,4,1.6c1.5,0,2.7-0.1,3.7-0.5
		c1-0.3,2.1-0.8,3.2-1.4l1.8,4.1c-1,0.8-2.3,1.5-4,2C235.2,98.4,233.4,98.7,231.4,98.7z M231,78.5c-1.3,0-2.3,0.5-3.1,1.4
		c-0.7,0.9-1.1,2.1-1.3,3.6l0,0.1h8v-0.5c0-1.4-0.3-2.5-0.9-3.4C233.2,78.9,232.3,78.5,231,78.5z"/>
	<path class="st1" d="M251,73.9l0.3,3.5c0.8-1.2,1.8-2.2,3-2.9c1.2-0.7,2.5-1,4-1c2.5,0,4.4,0.8,5.8,2.4c1.4,1.6,2.1,4.1,2.1,7.5
		v14.9h-6.6V83.3c0-1.7-0.3-3-0.9-3.7c-0.6-0.7-1.5-1.1-2.7-1.1c-1,0-1.8,0.2-2.6,0.6s-1.4,0.9-1.8,1.5v17.6h-6.6V73.9H251z"/>
	<path class="st1" d="M278,86.3v11.9h-6.6V65.5H284c3.8,0,6.7,1,8.9,2.9c2.2,1.9,3.2,4.4,3.2,7.6c0,3.1-1.1,5.7-3.2,7.6
		c-2.2,1.9-5.1,2.9-8.9,2.9H278z M278,81.3h6c1.8,0,3.2-0.5,4.2-1.5s1.4-2.3,1.4-3.8c0-1.6-0.5-2.9-1.4-3.9c-0.9-1-2.3-1.5-4.2-1.5
		h-6V81.3z"/>
	<path class="st1" d="M326,93.7c-1,1.3-2.5,2.5-4.6,3.5c-2,1-4.6,1.5-7.8,1.5c-4,0-7.2-1.2-9.7-3.7c-2.5-2.5-3.8-5.7-3.8-9.7v-6.8
		c0-4,1.2-7.2,3.7-9.7c2.4-2.5,5.6-3.7,9.4-3.7c4,0,7.1,0.9,9.2,2.8c2.1,1.9,3.2,4.4,3.1,7.6l0,0.1h-6.2c0-1.7-0.5-3.1-1.5-4.1
		c-1-1-2.5-1.5-4.4-1.5c-2,0-3.6,0.8-4.9,2.3c-1.2,1.6-1.8,3.6-1.8,6v6.9c0,2.5,0.6,4.5,1.9,6.1c1.3,1.6,2.9,2.3,5.1,2.3
		c1.6,0,2.8-0.2,3.7-0.5c0.9-0.3,1.6-0.7,2.1-1.2v-6.3h-6.3v-4.5H326V93.7z"/>
	<path class="st1" d="M338.1,86.3v11.9h-6.6V65.5h12.5c3.8,0,6.7,1,8.9,2.9c2.2,1.9,3.2,4.4,3.2,7.6c0,3.1-1.1,5.7-3.2,7.6
		c-2.2,1.9-5.1,2.9-8.9,2.9H338.1z M338.1,81.3h6c1.8,0,3.2-0.5,4.2-1.5s1.4-2.3,1.4-3.8c0-1.6-0.5-2.9-1.4-3.9
		c-0.9-1-2.3-1.5-4.2-1.5h-6V81.3z"/>
</g>
<g>
	<path class="st1" d="M145.4,123.7c0,1.1-0.4,2-1.1,2.8c-0.7,0.7-1.6,1.1-2.7,1.1c-1.1,0-2-0.4-2.7-1.1s-1-1.6-1-2.8v-1.6
		c0-1.1,0.3-2,1-2.8c0.7-0.7,1.6-1.1,2.7-1.1c1.1,0,2,0.4,2.7,1.1c0.7,0.7,1.1,1.6,1.1,2.8V123.7z M143.5,122.1
		c0-0.7-0.2-1.3-0.5-1.7s-0.8-0.7-1.5-0.7c-0.6,0-1.1,0.2-1.4,0.7c-0.3,0.5-0.5,1-0.5,1.7v1.6c0,0.7,0.2,1.3,0.5,1.8
		c0.3,0.5,0.8,0.7,1.4,0.7c0.6,0,1.1-0.2,1.5-0.7c0.3-0.5,0.5-1,0.5-1.8V122.1z"/>
	<path class="st1" d="M148.6,124.2v3.3h-1.8v-9h3.5c1,0,1.9,0.3,2.5,0.8c0.6,0.5,0.9,1.2,0.9,2.1s-0.3,1.6-0.9,2.1
		c-0.6,0.5-1.4,0.8-2.5,0.8H148.6z M148.6,122.8h1.6c0.5,0,0.9-0.1,1.1-0.4c0.3-0.3,0.4-0.6,0.4-1.1c0-0.4-0.1-0.8-0.4-1.1
		c-0.3-0.3-0.6-0.4-1.2-0.4h-1.6V122.8z"/>
	<path class="st1" d="M160.1,123.5h-3.4v2.6h4v1.4h-5.8v-9h5.8v1.4h-4v2.3h3.4V123.5z"/>
	<path class="st1" d="M169.3,127.4h-1.8l-3.6-6.1l0,0v6.1H162v-9h1.8l3.6,6.1l0,0v-6.1h1.8V127.4z"/>
	<path class="st1" d="M178.9,125.1c0-0.3-0.1-0.6-0.4-0.8c-0.2-0.2-0.7-0.4-1.3-0.6c-1-0.3-1.8-0.7-2.4-1.1c-0.5-0.4-0.8-1-0.8-1.7
		c0-0.7,0.3-1.3,0.9-1.8c0.6-0.5,1.4-0.7,2.3-0.7c1,0,1.8,0.3,2.4,0.8c0.6,0.5,0.9,1.2,0.9,2l0,0h-1.8c0-0.5-0.1-0.8-0.4-1
		c-0.3-0.2-0.7-0.4-1.1-0.4c-0.4,0-0.8,0.1-1,0.3c-0.2,0.2-0.4,0.5-0.4,0.8c0,0.3,0.1,0.6,0.4,0.8c0.3,0.2,0.7,0.4,1.4,0.6
		c1,0.3,1.8,0.6,2.3,1.1s0.8,1.1,0.8,1.8c0,0.8-0.3,1.4-0.9,1.8c-0.6,0.4-1.4,0.7-2.4,0.7c-1,0-1.8-0.2-2.5-0.7
		c-0.7-0.5-1-1.2-1-2.2l0,0h1.8c0,0.5,0.2,0.9,0.5,1.2c0.3,0.3,0.7,0.4,1.3,0.4c0.5,0,0.9-0.1,1.1-0.3
		C178.7,125.7,178.9,125.4,178.9,125.1z"/>
	<path class="st1" d="M189.3,123.7c0,1.1-0.4,2-1.1,2.8c-0.7,0.7-1.6,1.1-2.7,1.1c-1.1,0-2-0.4-2.7-1.1c-0.7-0.7-1-1.6-1-2.8v-1.6
		c0-1.1,0.3-2,1-2.8c0.7-0.7,1.6-1.1,2.7-1.1c1.1,0,2,0.4,2.7,1.1c0.7,0.7,1.1,1.6,1.1,2.8V123.7z M187.5,122.1
		c0-0.7-0.2-1.3-0.5-1.7s-0.8-0.7-1.5-0.7c-0.6,0-1.1,0.2-1.4,0.7c-0.3,0.5-0.5,1-0.5,1.7v1.6c0,0.7,0.2,1.3,0.5,1.8
		c0.3,0.5,0.8,0.7,1.4,0.7c0.6,0,1.1-0.2,1.5-0.7s0.5-1,0.5-1.8V122.1z"/>
	<path class="st1" d="M197.9,118.4v5.9c0,1-0.3,1.8-1,2.4c-0.7,0.6-1.6,0.9-2.6,0.9c-1.1,0-1.9-0.3-2.6-0.9c-0.7-0.6-1-1.4-1-2.4
		v-5.9h1.8v5.9c0,0.6,0.2,1.1,0.5,1.4c0.3,0.3,0.8,0.5,1.3,0.5c0.6,0,1-0.2,1.3-0.5c0.3-0.3,0.5-0.8,0.5-1.4v-5.9H197.9z"/>
	<path class="st1" d="M201.3,123.8v3.6h-1.8v-9h3.1c1,0,1.8,0.2,2.4,0.7c0.6,0.5,0.9,1.1,0.9,2c0,0.5-0.1,0.9-0.4,1.2
		c-0.2,0.3-0.6,0.6-1.1,0.8c0.5,0.2,0.9,0.4,1.2,0.8c0.2,0.4,0.4,0.8,0.4,1.4v0.7c0,0.3,0,0.5,0.1,0.8c0.1,0.3,0.2,0.5,0.4,0.6v0.1
		h-1.9c-0.2-0.1-0.3-0.4-0.3-0.7c0-0.3-0.1-0.6-0.1-0.9v-0.6c0-0.5-0.1-0.8-0.4-1.1c-0.2-0.3-0.6-0.4-1-0.4H201.3z M201.3,122.4h1.3
		c0.5,0,0.9-0.1,1.1-0.3c0.2-0.2,0.4-0.5,0.4-1c0-0.4-0.1-0.7-0.4-1s-0.6-0.4-1.1-0.4h-1.3V122.4z"/>
	<path class="st1" d="M214.4,124.4L214.4,124.4c0,1-0.3,1.8-0.9,2.3c-0.6,0.5-1.4,0.8-2.5,0.8c-1.1,0-2-0.3-2.6-1
		c-0.7-0.7-1-1.6-1-2.7V122c0-1.1,0.3-2,1-2.7c0.7-0.7,1.5-1.1,2.6-1.1c1.1,0,2,0.3,2.6,0.8c0.6,0.5,0.9,1.3,0.9,2.3l0,0h-1.8
		c0-0.6-0.1-1-0.4-1.3c-0.3-0.3-0.7-0.4-1.3-0.4c-0.5,0-1,0.2-1.3,0.7s-0.5,1-0.5,1.7v1.8c0,0.7,0.2,1.3,0.5,1.7
		c0.3,0.4,0.8,0.7,1.3,0.7c0.5,0,0.9-0.1,1.2-0.4c0.3-0.3,0.4-0.7,0.4-1.3H214.4z"/>
	<path class="st1" d="M220.9,123.5h-3.4v2.6h4v1.4h-5.8v-9h5.8v1.4h-4v2.3h3.4V123.5z"/>
	<path class="st1" d="M231.1,123.5h-3.4v2.6h4v1.4H226v-9h5.8v1.4h-4v2.3h3.4V123.5z"/>
	<path class="st1" d="M240.4,127.4h-1.8l-3.6-6.1l0,0v6.1H233v-9h1.8l3.6,6.1l0,0v-6.1h1.8V127.4z"/>
	<path class="st1" d="M248.8,124.4L248.8,124.4c0,1-0.3,1.8-0.9,2.3c-0.6,0.5-1.4,0.8-2.5,0.8c-1.1,0-2-0.3-2.6-1
		c-0.7-0.7-1-1.6-1-2.7V122c0-1.1,0.3-2,1-2.7c0.7-0.7,1.5-1.1,2.6-1.1c1.1,0,2,0.3,2.6,0.8c0.6,0.5,0.9,1.3,0.9,2.3l0,0h-1.8
		c0-0.6-0.1-1-0.4-1.3c-0.3-0.3-0.7-0.4-1.3-0.4c-0.5,0-1,0.2-1.3,0.7s-0.5,1-0.5,1.7v1.8c0,0.7,0.2,1.3,0.5,1.7
		c0.3,0.4,0.8,0.7,1.3,0.7c0.5,0,0.9-0.1,1.2-0.4c0.3-0.3,0.4-0.7,0.4-1.3H248.8z"/>
	<path class="st1" d="M251.9,123.8v3.6h-1.8v-9h3.1c1,0,1.8,0.2,2.4,0.7c0.6,0.5,0.9,1.1,0.9,2c0,0.5-0.1,0.9-0.4,1.2
		c-0.2,0.3-0.6,0.6-1.1,0.8c0.5,0.2,0.9,0.4,1.2,0.8c0.2,0.4,0.4,0.8,0.4,1.4v0.7c0,0.3,0,0.5,0.1,0.8c0.1,0.3,0.2,0.5,0.4,0.6v0.1
		h-1.9c-0.2-0.1-0.3-0.4-0.3-0.7c0-0.3-0.1-0.6-0.1-0.9v-0.6c0-0.5-0.1-0.8-0.4-1.1c-0.2-0.3-0.6-0.4-1-0.4H251.9z M251.9,122.4h1.3
		c0.5,0,0.9-0.1,1.1-0.3c0.2-0.2,0.4-0.5,0.4-1c0-0.4-0.1-0.7-0.4-1c-0.3-0.2-0.6-0.4-1.1-0.4h-1.3V122.4z"/>
	<path class="st1" d="M261.1,122.6L261.1,122.6l2-4.2h2l-3.1,5.9v3.2h-1.8v-3.3l-3.1-5.8h2L261.1,122.6z"/>
	<path class="st1" d="M267.8,124.2v3.3H266v-9h3.5c1,0,1.9,0.3,2.5,0.8c0.6,0.5,0.9,1.2,0.9,2.1s-0.3,1.6-0.9,2.1
		c-0.6,0.5-1.4,0.8-2.5,0.8H267.8z M267.8,122.8h1.6c0.5,0,0.9-0.1,1.1-0.4c0.3-0.3,0.4-0.6,0.4-1.1c0-0.4-0.1-0.8-0.4-1.1
		c-0.3-0.3-0.6-0.4-1.2-0.4h-1.6V122.8z"/>
	<path class="st1" d="M280.5,119.8h-2.6v7.7H276v-7.7h-2.5v-1.4h6.9V119.8z"/>
	<path class="st1" d="M283.4,127.4h-1.8v-9h1.8V127.4z"/>
	<path class="st1" d="M292.5,123.7c0,1.1-0.4,2-1.1,2.8c-0.7,0.7-1.6,1.1-2.7,1.1c-1.1,0-2-0.4-2.7-1.1c-0.7-0.7-1-1.6-1-2.8v-1.6
		c0-1.1,0.3-2,1-2.8c0.7-0.7,1.6-1.1,2.7-1.1c1.1,0,2,0.4,2.7,1.1c0.7,0.7,1.1,1.6,1.1,2.8V123.7z M290.7,122.1
		c0-0.7-0.2-1.3-0.5-1.7s-0.8-0.7-1.5-0.7c-0.6,0-1.1,0.2-1.4,0.7c-0.3,0.5-0.5,1-0.5,1.7v1.6c0,0.7,0.2,1.3,0.5,1.8
		c0.3,0.5,0.8,0.7,1.4,0.7c0.6,0,1.1-0.2,1.5-0.7s0.5-1,0.5-1.8V122.1z"/>
	<path class="st1" d="M301.3,127.4h-1.8l-3.6-6.1l0,0v6.1h-1.8v-9h1.8l3.6,6.1l0,0v-6.1h1.8V127.4z"/>
	<path class="st1" d="M307.9,126h4.1v1.4h-5.9v-9h1.8V126z"/>
	<path class="st1" d="M315.1,127.4h-1.8v-9h1.8V127.4z"/>
	<path class="st1" d="M316.9,127.4v-9h3c1.1,0,1.9,0.2,2.5,0.6c0.6,0.4,0.9,1,0.9,1.9c0,0.4-0.1,0.8-0.3,1.1
		c-0.2,0.3-0.5,0.6-0.9,0.7c0.6,0.1,1,0.3,1.3,0.7c0.3,0.4,0.4,0.8,0.4,1.3c0,0.9-0.3,1.5-0.9,2c-0.6,0.4-1.4,0.7-2.4,0.7H316.9z
		 M318.7,122.2h1.2c0.5,0,0.9-0.1,1.1-0.3c0.3-0.2,0.4-0.5,0.4-0.9c0-0.4-0.1-0.7-0.4-0.9c-0.3-0.2-0.7-0.3-1.2-0.3h-1.1V122.2z
		 M318.7,123.4v2.6h1.7c0.5,0,0.8-0.1,1.1-0.3c0.3-0.2,0.4-0.5,0.4-0.9c0-0.4-0.1-0.8-0.4-1c-0.2-0.2-0.6-0.4-1.1-0.4H318.7z"/>
	<path class="st1" d="M326.8,123.8v3.6H325v-9h3.1c1,0,1.8,0.2,2.4,0.7c0.6,0.5,0.9,1.1,0.9,2c0,0.5-0.1,0.9-0.4,1.2
		c-0.2,0.3-0.6,0.6-1.1,0.8c0.5,0.2,0.9,0.4,1.2,0.8c0.2,0.4,0.4,0.8,0.4,1.4v0.7c0,0.3,0,0.5,0.1,0.8c0.1,0.3,0.2,0.5,0.4,0.6v0.1
		h-1.9c-0.2-0.1-0.3-0.4-0.3-0.7c0-0.3-0.1-0.6-0.1-0.9v-0.6c0-0.5-0.1-0.8-0.4-1.1c-0.2-0.3-0.6-0.4-1-0.4H326.8z M326.8,122.4h1.3
		c0.5,0,0.9-0.1,1.1-0.3c0.2-0.2,0.4-0.5,0.4-1c0-0.4-0.1-0.7-0.4-1s-0.6-0.4-1.1-0.4h-1.3V122.4z"/>
	<path class="st1" d="M337.8,125.5h-2.9l-0.6,2h-1.9l3.1-9h1.9l3,9h-1.9L337.8,125.5z M335.3,124.1h2l-1-3.2h0L335.3,124.1z"/>
	<path class="st1" d="M343,123.8v3.6h-1.8v-9h3.1c1,0,1.8,0.2,2.4,0.7c0.6,0.5,0.9,1.1,0.9,2c0,0.5-0.1,0.9-0.4,1.2
		c-0.2,0.3-0.6,0.6-1.1,0.8c0.5,0.2,0.9,0.4,1.2,0.8c0.2,0.4,0.4,0.8,0.4,1.4v0.7c0,0.3,0,0.5,0.1,0.8c0.1,0.3,0.2,0.5,0.4,0.6v0.1
		h-1.9c-0.2-0.1-0.3-0.4-0.3-0.7c0-0.3-0.1-0.6-0.1-0.9v-0.6c0-0.5-0.1-0.8-0.4-1.1c-0.2-0.3-0.6-0.4-1-0.4H343z M343,122.4h1.3
		c0.5,0,0.9-0.1,1.1-0.3c0.2-0.2,0.4-0.5,0.4-1c0-0.4-0.1-0.7-0.4-1s-0.6-0.4-1.1-0.4H343V122.4z"/>
	<path class="st1" d="M352.2,122.6L352.2,122.6l2-4.2h2l-3.1,5.9v3.2h-1.8v-3.3l-3.1-5.8h2L352.2,122.6z"/>
</g>
</svg>
