<svg xmlns="http://www.w3.org/2000/svg" id="Layer_1" viewBox="0 0 180 41"><style id="style1016">.st0{fill:#fff}.st1{fill:#034ea2}.st2{fill:#fff100}</style><g id="g1208" transform="matrix(.20207 0 0 .20207 -5.43 -3.044)"><g id="g1056"><g id="g1022"><path class="st0" id="rect1018" fill="#fff" d="M30.87 16.33h294.95v200.34H30.87z"/></g><g id="g1028"><path class="st1" id="rect1024" fill="#034ea2" d="M36.54 21.82h283.6v189.07H36.54z"/></g><g id="g1054"><path class="st2" id="polygon1030" fill="#fff100" d="M188.07 51.59h-7.49l-2.3-7.15-2.29 7.15h-7.49l6.08 4.36-2.28 7.07 5.98-4.37 5.99 4.37-2.28-7.07z"/><path class="st2" id="polygon1032" fill="#fff100" d="M157.1 59.91h-7.5l-2.29-7.16-2.29 7.16h-7.49l6.07 4.36-2.27 7.07 5.98-4.37 5.98 4.37-2.27-7.07z"/><path class="st2" id="polygon1034" fill="#fff100" d="M118.67 94.05l5.98-4.37 5.99 4.37-2.28-7.07 6.08-4.36h-7.49l-2.3-7.16-2.29 7.16h-7.49l6.08 4.36z"/><path class="st2" id="polygon1036" fill="#fff100" d="M118.63 113.55l-2.29-7.16-2.29 7.17-7.49-.01 6.07 4.36-2.27 7.07 5.98-4.37 5.98 4.37-2.27-7.07 6.07-4.36z"/><path class="st2" id="polygon1038" fill="#fff100" d="M120.95 148.94l-2.28 7.06 5.98-4.38 5.99 4.38-2.28-7.06 6.08-4.37h-7.49l-2.3-7.16-2.29 7.17-7.49-.01z"/><path class="st2" id="polygon1040" fill="#fff100" d="M143.65 171.64l-2.27 7.06 5.98-4.36 5.98 4.36-2.27-7.06 6.07-4.37h-7.49l-2.29-7.15-2.29 7.16-7.49-.01z"/><path class="st2" id="polygon1042" fill="#fff100" d="M174.58 179.87l-2.27 7.06 5.98-4.37 5.98 4.37-2.28-7.06 6.08-4.37h-7.49l-2.29-7.16-2.29 7.17-7.49-.01z"/><path class="st2" id="polygon1044" fill="#fff100" d="M205.51 171.64l-2.27 7.06 5.98-4.36 5.98 4.36-2.28-7.06 6.08-4.37h-7.49l-2.29-7.15-2.3 7.16-7.48-.01z"/><path class="st2" id="polygon1046" fill="#fff100" d="M228.22 148.94l-2.28 7.06 5.98-4.38 5.99 4.38-2.28-7.06 6.07-4.37h-7.48l-2.3-7.16-2.29 7.17-7.49-.01z"/><path class="st2" id="polygon1048" fill="#fff100" d="M230.36 113.46l6.08 4.37-2.27 7.06 5.97-4.37 5.99 4.37-2.28-7.06 6.08-4.37h-7.49l-2.3-7.16-2.29 7.17z"/><path class="st2" id="polygon1050" fill="#fff100" d="M241.7 82.53h-7.48l-2.3-7.15-2.29 7.16-7.49-.01 6.08 4.36-2.28 7.06 5.98-4.36 5.99 4.36-2.28-7.06z"/><path class="st2" id="polygon1052" fill="#fff100" d="M203.32 71.34l5.99-4.37 5.98 4.37-2.27-7.06 6.08-4.37h-7.5l-2.29-7.15-2.29 7.16-7.5-.01 6.08 4.37z"/></g></g><g id="g1206"><path class="st0" d="M377.01 60.5V34.22H367V30.7h23.98v3.52h-10.01V60.5z" id="path1058" fill="#fff"/><path class="st0" d="M412.49 60.5h-3.76V47.77c0-1.03-.05-1.98-.15-2.87-.1-.89-.29-1.6-.57-2.13-.31-.56-.73-.98-1.28-1.25s-1.29-.41-2.24-.41c-.93 0-1.9.25-2.89.75-.99.5-1.97 1.15-2.91 1.95v16.7h-3.76V29.35h3.76v11.27c1.12-1 2.23-1.77 3.32-2.3 1.09-.53 2.25-.8 3.46-.8 2.2 0 3.92.72 5.17 2.17 1.24 1.45 1.86 3.55 1.86 6.3V60.5z" id="path1060" fill="#fff"/><path class="st0" d="M423.11 34.4h-4.28v-3.9h4.28zm-.26 26.1h-3.76V38.14h3.76z" id="path1062" fill="#fff"/><path class="st0" d="M435.65 61.04c-1.5 0-2.89-.2-4.19-.6-1.3-.4-2.38-.83-3.23-1.28v-4.22h.2c.32.25.7.53 1.13.84.43.31 1.01.63 1.73.96.64.29 1.34.55 2.11.78.77.23 1.56.34 2.39.34.6 0 1.24-.07 1.92-.21.68-.14 1.19-.32 1.52-.53.47-.31.8-.63 1.01-.98.21-.35.31-.87.31-1.56 0-.89-.24-1.57-.73-2.02-.49-.45-1.35-.83-2.59-1.14-.48-.12-1.11-.26-1.88-.42-.77-.16-1.49-.33-2.14-.52-1.71-.49-2.95-1.26-3.72-2.29s-1.16-2.29-1.16-3.75c0-2.02.76-3.66 2.28-4.92 1.52-1.27 3.54-1.9 6.07-1.9 1.24 0 2.49.15 3.74.46 1.25.31 2.31.69 3.16 1.16v4.02h-.2c-.96-.76-2.03-1.36-3.21-1.8a10.15 10.15 0 0 0-3.57-.66c-1.24 0-2.29.26-3.14.78-.85.52-1.28 1.31-1.28 2.36 0 .93.25 1.63.76 2.09.51.46 1.32.84 2.44 1.13.56.15 1.18.29 1.87.43.69.14 1.41.3 2.17.49 1.65.41 2.9 1.1 3.73 2.06.83.96 1.25 2.27 1.25 3.92 0 .96-.19 1.87-.57 2.73-.38.86-.94 1.6-1.67 2.21-.8.67-1.71 1.17-2.71 1.52-1.01.35-2.28.52-3.8.52z" id="path1064" fill="#fff"/><path class="st0" d="M481.93 48.73c0 3.72-.89 6.69-2.67 8.9-1.78 2.21-4.03 3.31-6.76 3.31-1.11 0-2.09-.13-2.94-.38-.85-.25-1.73-.65-2.62-1.18v9.37h-3.76V38.14h3.76v2.34c.93-.84 1.97-1.54 3.11-2.11 1.14-.57 2.39-.85 3.73-.85 2.56 0 4.56 1.01 6 3.04 1.44 2.03 2.15 4.75 2.15 8.17zm-3.88.42c0-2.55-.41-4.53-1.22-5.94-.81-1.41-2.14-2.11-3.96-2.11-1.07 0-2.1.24-3.09.71-.99.47-1.94 1.08-2.83 1.83v12.67c.99.48 1.83.81 2.53.98.7.17 1.5.26 2.41.26 1.95 0 3.46-.71 4.54-2.14 1.08-1.42 1.62-3.51 1.62-6.26z" id="path1066" fill="#fff"/><path class="st0" d="M498.92 42.19h-.2c-.28-.08-.58-.13-.89-.15-.31-.02-.69-.03-1.13-.03-1.01 0-2.02.22-3.02.66-1 .44-1.95 1.09-2.84 1.96V60.5h-3.76V38.14h3.76v3.32c1.37-1.21 2.57-2.07 3.59-2.57s2.01-.75 2.97-.75c.39 0 .68.01.87.03.19.02.41.05.65.09z" id="path1068" fill="#fff"/><path class="st0" d="M521.27 49.33c0 3.76-.91 6.67-2.72 8.72-1.82 2.05-4.23 3.07-7.25 3.07-3.11 0-5.56-1.06-7.34-3.17-1.78-2.11-2.67-4.99-2.67-8.62 0-3.74.92-6.64 2.75-8.71 1.83-2.07 4.25-3.1 7.26-3.1 3.02 0 5.43 1.03 7.25 3.09 1.81 2.07 2.72 4.97 2.72 8.72zm-3.88 0c0-2.9-.53-5.05-1.58-6.46-1.05-1.41-2.56-2.11-4.5-2.11-1.96 0-3.47.7-4.53 2.11s-1.59 3.56-1.59 6.46c0 2.8.53 4.93 1.59 6.38 1.06 1.45 2.57 2.17 4.53 2.17 1.94 0 3.43-.71 4.49-2.13s1.59-3.56 1.59-6.42z" id="path1070" fill="#fff"/><path class="st0" d="M532.47 61.14c0 2.55-.68 4.49-2.05 5.83-1.37 1.33-3.25 2-5.66 2a19.921 19.921 0 0 1-2.92-.24v-3.36h.22c.29.07.62.13.97.19s.69.09 1.01.09c1 0 1.82-.12 2.47-.37.65-.25 1.13-.64 1.45-1.17.29-.48.49-1.09.59-1.82.1-.73.15-1.63.15-2.68V41.26h-4.04v-3.12h7.81zm.02-26.74h-4.28v-3.9h4.28z" id="path1072" fill="#fff"/><path class="st0" d="M548.85 61.02c-3.56 0-6.33-1-8.3-3.01-1.97-2.01-2.95-4.86-2.95-8.56 0-3.64.95-6.54 2.86-8.7 1.91-2.16 4.4-3.23 7.49-3.23 1.39 0 2.62.2 3.68.6 1.07.4 2 1.03 2.8 1.88.8.85 1.41 1.9 1.84 3.13.43 1.23.64 2.75.64 4.53v2.04h-15.5c0 2.6.65 4.59 1.96 5.97s3.12 2.06 5.43 2.06c.83 0 1.64-.09 2.43-.28.79-.19 1.51-.43 2.15-.72.68-.31 1.25-.6 1.72-.89.47-.29.85-.56 1.16-.81h.22v4.1c-.44.17-.99.39-1.64.65-.65.26-1.24.46-1.76.61-.73.2-1.4.35-1.99.46-.58.12-1.33.17-2.24.17zm4.41-14.19c-.03-1.01-.15-1.89-.36-2.62-.21-.73-.52-1.35-.92-1.86-.44-.56-1-.99-1.69-1.28-.69-.29-1.54-.44-2.55-.44-1 0-1.85.15-2.55.45-.7.3-1.34.74-1.91 1.31-.56.59-.99 1.24-1.28 1.95-.29.71-.48 1.55-.56 2.49z" id="path1074" fill="#fff"/><path class="st0" d="M570.85 61c-1.54 0-2.94-.24-4.22-.71a8.631 8.631 0 0 1-3.3-2.15c-.92-.96-1.63-2.17-2.14-3.63-.51-1.46-.76-3.18-.76-5.15 0-1.96.26-3.66.79-5.08.53-1.43 1.23-2.63 2.11-3.6.88-.97 1.98-1.72 3.29-2.25s2.73-.79 4.23-.79c1.23 0 2.41.17 3.55.52 1.14.35 2.16.75 3.05 1.2v4.22h-.22c-.27-.23-.61-.49-1.03-.78-.42-.29-.93-.59-1.53-.9-.52-.27-1.13-.5-1.84-.7-.71-.2-1.39-.3-2.04-.3-1.95 0-3.51.74-4.69 2.21-1.18 1.48-1.77 3.56-1.77 6.26 0 2.64.57 4.7 1.71 6.18 1.14 1.47 2.73 2.21 4.75 2.21 1.23 0 2.4-.25 3.5-.76 1.11-.51 2.09-1.16 2.94-1.96h.22v4.22c-.37.17-.84.38-1.4.63-.56.25-1.07.43-1.52.55-.64.19-1.21.33-1.72.43-.51.08-1.16.13-1.96.13z" id="path1076" fill="#fff"/><path class="st0" d="M588.87 60.94c-2.06 0-3.66-.58-4.8-1.75-1.15-1.17-1.72-3.01-1.72-5.54V41.26h-2.54v-3.12h2.54v-6.43h3.76v6.43h6.93v3.12h-6.93v10.63c0 1.13.02 2.01.06 2.62.04.61.19 1.19.46 1.72.23.47.59.82 1.1 1.05.51.23 1.19.35 2.06.35.61 0 1.21-.09 1.78-.27.57-.18.99-.33 1.24-.45h.22v3.38c-.71.2-1.42.36-2.15.47-.72.13-1.4.18-2.01.18z" id="path1078" fill="#fff"/><path class="st0" d="M615.19 34.4h-4.28v-3.9h4.28zm-.26 26.1h-3.76V38.14h3.76z" id="path1080" fill="#fff"/><path class="st0" d="M627.74 61.04c-1.5 0-2.89-.2-4.19-.6-1.3-.4-2.38-.83-3.23-1.28v-4.22h.2c.32.25.7.53 1.13.84.43.31 1.01.63 1.73.96.64.29 1.34.55 2.11.78.77.23 1.56.34 2.39.34.6 0 1.24-.07 1.92-.21.68-.14 1.19-.32 1.52-.53.47-.31.8-.63 1.01-.98.21-.35.31-.87.31-1.56 0-.89-.24-1.57-.73-2.02-.49-.45-1.35-.83-2.59-1.14-.48-.12-1.11-.26-1.88-.42-.77-.16-1.49-.33-2.14-.52-1.71-.49-2.95-1.26-3.72-2.29s-1.16-2.29-1.16-3.75c0-2.02.76-3.66 2.28-4.92 1.52-1.27 3.54-1.9 6.07-1.9 1.24 0 2.49.15 3.74.46 1.25.31 2.31.69 3.16 1.16v4.02h-.2c-.96-.76-2.03-1.36-3.21-1.8a10.15 10.15 0 0 0-3.57-.66c-1.24 0-2.29.26-3.14.78-.85.52-1.28 1.31-1.28 2.36 0 .93.25 1.63.76 2.09.51.46 1.32.84 2.44 1.13.56.15 1.18.29 1.87.43.69.14 1.41.3 2.17.49 1.65.41 2.9 1.1 3.73 2.06.83.96 1.25 2.27 1.25 3.92 0 .96-.19 1.87-.57 2.73-.38.86-.94 1.6-1.67 2.21-.8.67-1.71 1.17-2.71 1.52-1.02.35-2.28.52-3.8.52z" id="path1082" fill="#fff"/><path class="st0" d="M661.31 61.04c-1.5 0-2.89-.2-4.19-.6-1.3-.4-2.38-.83-3.23-1.28v-4.22h.2c.32.25.7.53 1.13.84.43.31 1.01.63 1.73.96.64.29 1.34.55 2.11.78.77.23 1.56.34 2.39.34.6 0 1.24-.07 1.92-.21.68-.14 1.19-.32 1.52-.53.47-.31.8-.63 1.01-.98.21-.35.31-.87.31-1.56 0-.89-.24-1.57-.73-2.02-.49-.45-1.35-.83-2.59-1.14-.48-.12-1.11-.26-1.88-.42-.77-.16-1.49-.33-2.14-.52-1.71-.49-2.95-1.26-3.72-2.29s-1.16-2.29-1.16-3.75c0-2.02.76-3.66 2.28-4.92 1.52-1.27 3.54-1.9 6.07-1.9 1.24 0 2.49.15 3.74.46 1.25.31 2.31.69 3.16 1.16v4.02h-.2c-.96-.76-2.03-1.36-3.21-1.8a10.15 10.15 0 0 0-3.57-.66c-1.24 0-2.29.26-3.14.78-.85.52-1.28 1.31-1.28 2.36 0 .93.25 1.63.76 2.09.51.46 1.32.84 2.44 1.13.56.15 1.18.29 1.87.43.69.14 1.41.3 2.17.49 1.65.41 2.9 1.1 3.73 2.06.83.96 1.25 2.27 1.25 3.92 0 .96-.19 1.87-.57 2.73-.38.86-.94 1.6-1.67 2.21-.8.67-1.71 1.17-2.71 1.52-1.02.35-2.28.52-3.8.52z" id="path1084" fill="#fff"/><path class="st0" d="M692.2 60.5h-3.76v-2.48c-1.16 1.01-2.26 1.79-3.3 2.31-1.04.53-2.2.79-3.48.79-.97 0-1.89-.16-2.75-.48a5.8 5.8 0 0 1-2.25-1.52c-.64-.69-1.14-1.57-1.49-2.62-.35-1.05-.53-2.34-.53-3.84V38.14h3.76v12.73c0 1.19.04 2.17.13 2.95.09.78.28 1.47.59 2.05.31.57.72.99 1.25 1.26s1.28.4 2.27.4c.92 0 1.9-.26 2.94-.78s1.99-1.16 2.86-1.92v-16.7h3.76z" id="path1086" fill="#fff"/><path class="st0" d="M717.64 48.73c0 3.72-.89 6.69-2.67 8.9-1.78 2.21-4.03 3.31-6.76 3.31-1.11 0-2.09-.13-2.94-.38-.85-.25-1.73-.65-2.62-1.18v9.37h-3.76V38.14h3.76v2.34c.93-.84 1.97-1.54 3.11-2.11 1.14-.57 2.38-.85 3.73-.85 2.56 0 4.56 1.01 6 3.04 1.43 2.03 2.15 4.75 2.15 8.17zm-3.88.42c0-2.55-.41-4.53-1.22-5.94-.81-1.41-2.14-2.11-3.96-2.11-1.07 0-2.1.24-3.09.71-1 .47-1.94 1.08-2.83 1.83v12.67c.99.48 1.83.81 2.53.98.7.17 1.5.26 2.41.26 1.95 0 3.46-.71 4.54-2.14 1.07-1.42 1.62-3.51 1.62-6.26z" id="path1088" fill="#fff"/><path class="st0" d="M741.53 48.73c0 3.72-.89 6.69-2.67 8.9-1.78 2.21-4.03 3.31-6.76 3.31-1.11 0-2.09-.13-2.94-.38-.85-.25-1.73-.65-2.62-1.18v9.37h-3.76V38.14h3.76v2.34c.93-.84 1.97-1.54 3.11-2.11 1.14-.57 2.38-.85 3.73-.85 2.56 0 4.56 1.01 6 3.04 1.43 2.03 2.15 4.75 2.15 8.17zm-3.88.42c0-2.55-.41-4.53-1.22-5.94-.81-1.41-2.14-2.11-3.96-2.11-1.07 0-2.1.24-3.09.71-1 .47-1.94 1.08-2.83 1.83v12.67c.99.48 1.83.81 2.53.98.7.17 1.5.26 2.41.26 1.95 0 3.46-.71 4.54-2.14 1.08-1.42 1.62-3.51 1.62-6.26z" id="path1090" fill="#fff"/><path class="st0" d="M765.06 49.33c0 3.76-.91 6.67-2.72 8.72-1.82 2.05-4.23 3.07-7.25 3.07-3.11 0-5.55-1.06-7.34-3.17-1.78-2.11-2.67-4.99-2.67-8.62 0-3.74.92-6.64 2.75-8.71 1.83-2.07 4.25-3.1 7.26-3.1 3.02 0 5.43 1.03 7.25 3.09 1.81 2.07 2.72 4.97 2.72 8.72zm-3.88 0c0-2.9-.53-5.05-1.58-6.46-1.05-1.41-2.56-2.11-4.5-2.11-1.96 0-3.47.7-4.53 2.11s-1.59 3.56-1.59 6.46c0 2.8.53 4.93 1.59 6.38 1.06 1.45 2.57 2.17 4.53 2.17 1.94 0 3.43-.71 4.5-2.13 1.05-1.42 1.58-3.56 1.58-6.42z" id="path1092" fill="#fff"/><path class="st0" d="M782.01 42.19h-.2c-.28-.08-.58-.13-.89-.15-.31-.02-.69-.03-1.13-.03-1.01 0-2.02.22-3.02.66-1 .44-1.95 1.09-2.84 1.96V60.5h-3.76V38.14h3.76v3.32c1.37-1.21 2.57-2.07 3.59-2.57s2.01-.75 2.97-.75c.39 0 .68.01.87.03.19.02.41.05.65.09z" id="path1094" fill="#fff"/><path class="st0" d="M792.93 60.94c-2.06 0-3.66-.58-4.8-1.75-1.15-1.17-1.72-3.01-1.72-5.54V41.26h-2.54v-3.12h2.54v-6.43h3.76v6.43h6.93v3.12h-6.93v10.63c0 1.13.02 2.01.06 2.62.04.61.19 1.19.46 1.72.23.47.59.82 1.1 1.05.51.23 1.19.35 2.06.35.61 0 1.21-.09 1.78-.27.57-.18.99-.33 1.24-.45h.22v3.38c-.71.2-1.42.36-2.15.47-.73.13-1.4.18-2.01.18z" id="path1096" fill="#fff"/><path class="st0" d="M810.81 61.02c-3.56 0-6.33-1-8.3-3.01-1.97-2.01-2.95-4.86-2.95-8.56 0-3.64.95-6.54 2.86-8.7 1.91-2.16 4.4-3.23 7.49-3.23 1.39 0 2.62.2 3.68.6 1.07.4 2 1.03 2.8 1.88.8.85 1.41 1.9 1.84 3.13.43 1.23.64 2.75.64 4.53v2.04h-15.5c0 2.6.65 4.59 1.96 5.97s3.12 2.06 5.43 2.06c.83 0 1.64-.09 2.43-.28.79-.19 1.51-.43 2.15-.72.68-.31 1.25-.6 1.72-.89.47-.29.85-.56 1.16-.81h.22v4.1c-.44.17-.99.39-1.64.65-.65.26-1.24.46-1.76.61-.73.2-1.4.35-1.99.46-.58.12-1.33.17-2.24.17zm4.41-14.19c-.03-1.01-.15-1.89-.36-2.62-.21-.73-.52-1.35-.92-1.86-.44-.56-1-.99-1.69-1.28-.69-.29-1.54-.44-2.55-.44-1 0-1.85.15-2.55.45-.7.3-1.34.74-1.91 1.31-.56.59-.99 1.24-1.28 1.95-.29.71-.48 1.55-.56 2.49z" id="path1098" fill="#fff"/><path class="st0" d="M841.13 60.5h-3.76v-2.28c-.59.49-1.09.9-1.52 1.22-.43.32-.93.61-1.5.88-.53.25-1.09.45-1.66.59-.57.14-1.24.21-2 .21-1.21 0-2.34-.25-3.37-.76-1.04-.51-1.91-1.25-2.63-2.22-.73-.99-1.3-2.21-1.7-3.65-.4-1.44-.6-3.11-.6-5 0-1.96.25-3.66.76-5.09.51-1.43 1.21-2.69 2.1-3.75.81-.97 1.8-1.74 2.95-2.29 1.15-.55 2.37-.83 3.63-.83 1.12 0 2.09.12 2.92.37.83.25 1.7.63 2.62 1.15v-9.69h3.76zm-3.76-5.44V42.17c-.93-.45-1.77-.77-2.51-.94-.74-.17-1.54-.26-2.41-.26-1.94 0-3.45.72-4.54 2.17-1.09 1.45-1.64 3.54-1.64 6.28 0 2.63.42 4.64 1.26 6.04.84 1.4 2.19 2.09 4.04 2.09.99 0 1.98-.22 2.98-.67 1-.46 1.94-1.06 2.82-1.82z" id="path1100" fill="#fff"/><path class="st0" d="M388.5 95.95c0 3.66-.89 6.6-2.66 8.83-1.78 2.23-4 3.34-6.67 3.34-1.21 0-2.25-.15-3.11-.45-.86-.3-1.71-.7-2.55-1.21l-.24 1.04h-3.52V76.35h3.76v11.13c.95-.85 1.98-1.56 3.08-2.12 1.11-.56 2.36-.84 3.76-.84 2.52 0 4.51 1.01 5.97 3.03 1.45 2.03 2.18 4.83 2.18 8.4zm-3.88.3c0-2.67-.41-4.69-1.22-6.08-.81-1.38-2.12-2.07-3.92-2.07-1.03 0-2.07.24-3.11.72s-2 1.09-2.85 1.82v12.81c.95.47 1.79.8 2.52.99.73.19 1.54.29 2.42.29 1.92 0 3.43-.68 4.52-2.04 1.09-1.35 1.64-3.5 1.64-6.44z" id="path1102" fill="#fff"/><path class="st0" d="M411.13 85.14l-12.03 30.61h-4.02l4-9.33-8.13-21.28h4.06l6.11 16.56 6.09-16.56z" id="path1104" fill="#fff"/><path class="st0" d="M436.01 107.94c-2.06 0-3.66-.58-4.8-1.75-1.15-1.17-1.72-3.01-1.72-5.54V88.26h-2.54v-3.12h2.54v-6.43h3.76v6.43h6.93v3.12h-6.93v10.63c0 1.13.02 2.01.06 2.62.04.61.19 1.19.46 1.72.23.47.59.82 1.1 1.05.51.23 1.19.35 2.06.35.61 0 1.21-.09 1.78-.27.57-.18.99-.33 1.24-.45h.22v3.38c-.71.2-1.42.36-2.15.47-.72.13-1.39.18-2.01.18z" id="path1106" fill="#fff"/><path class="st0" d="M461.77 107.5H458V94.77c0-1.03-.05-1.98-.15-2.87-.1-.89-.29-1.6-.57-2.13-.31-.56-.73-.98-1.28-1.25s-1.29-.41-2.24-.41c-.93 0-1.9.25-2.89.75-.99.5-1.97 1.15-2.91 1.95v16.7h-3.76V76.35h3.76v11.27c1.12-1 2.23-1.77 3.32-2.3 1.09-.53 2.25-.8 3.46-.8 2.2 0 3.92.72 5.17 2.17 1.24 1.45 1.86 3.55 1.86 6.3z" id="path1108" fill="#fff"/><path class="st0" d="M477.99 108.02c-3.56 0-6.33-1-8.3-3.01-1.97-2.01-2.95-4.86-2.95-8.56 0-3.64.95-6.54 2.86-8.7 1.91-2.16 4.4-3.23 7.49-3.23 1.39 0 2.62.2 3.68.6 1.07.4 2 1.03 2.8 1.88.8.85 1.41 1.9 1.84 3.13.43 1.23.64 2.75.64 4.53v2.04h-15.5c0 2.6.65 4.59 1.96 5.97s3.12 2.06 5.43 2.06c.83 0 1.64-.09 2.43-.28.79-.19 1.51-.43 2.15-.72.68-.31 1.25-.6 1.72-.89.47-.29.85-.56 1.16-.81h.22v4.1c-.44.17-.99.39-1.64.65-.65.26-1.24.46-1.76.61-.73.2-1.4.35-1.99.46-.58.12-1.33.17-2.24.17zm4.4-14.19c-.03-1.01-.15-1.89-.36-2.62-.21-.73-.52-1.35-.92-1.86-.44-.56-1-.99-1.69-1.28-.69-.29-1.54-.44-2.55-.44-1 0-1.85.15-2.55.45-.7.3-1.34.74-1.91 1.31-.56.59-.99 1.24-1.28 1.95-.29.71-.48 1.55-.56 2.49z" id="path1110" fill="#fff"/><path class="st0" d="M527.08 107.5h-3.96V92.91H509.4v14.59h-3.96V77.69h3.96v11.69h13.71V77.69h3.96v29.81z" id="path1112" fill="#fff"/><path class="st0" d="M552.45 96.33c0 3.76-.91 6.67-2.72 8.72-1.82 2.05-4.23 3.07-7.25 3.07-3.11 0-5.55-1.06-7.34-3.17-1.78-2.11-2.67-4.99-2.67-8.62 0-3.74.92-6.64 2.75-8.71 1.83-2.07 4.25-3.1 7.26-3.1 3.02 0 5.43 1.03 7.25 3.09 1.81 2.07 2.72 4.97 2.72 8.72zm-3.89 0c0-2.9-.53-5.05-1.58-6.46-1.05-1.41-2.56-2.11-4.5-2.11-1.96 0-3.47.7-4.53 2.11s-1.59 3.56-1.59 6.46c0 2.8.53 4.93 1.59 6.38 1.06 1.45 2.57 2.17 4.53 2.17 1.94 0 3.43-.71 4.5-2.13 1.05-1.42 1.58-3.56 1.58-6.42z" id="path1114" fill="#fff"/><path class="st0" d="M569.4 89.19h-.2c-.28-.08-.58-.13-.89-.15-.31-.02-.69-.03-1.13-.03-1.01 0-2.02.22-3.02.66-1 .44-1.95 1.09-2.84 1.96v15.88h-3.76V85.14h3.76v3.32c1.37-1.21 2.57-2.07 3.59-2.57s2.01-.75 2.97-.75c.39 0 .68.01.87.03.19.02.41.05.65.09z" id="path1116" fill="#fff"/><path class="st0" d="M577.65 81.4h-4.28v-3.9h4.28zm-.26 26.1h-3.76V85.14h3.76z" id="path1118" fill="#fff"/><path class="st0" d="M598.84 107.5H582.4v-2.78l11.69-16.48h-11.21v-3.1h15.74v2.68l-11.75 16.54h11.97z" id="path1120" fill="#fff"/><path class="st0" d="M621.79 96.33c0 3.76-.91 6.67-2.72 8.72-1.82 2.05-4.23 3.07-7.25 3.07-3.11 0-5.55-1.06-7.34-3.17-1.78-2.11-2.67-4.99-2.67-8.62 0-3.74.92-6.64 2.75-8.71 1.83-2.07 4.25-3.1 7.26-3.1 3.02 0 5.43 1.03 7.25 3.09 1.81 2.07 2.72 4.97 2.72 8.72zm-3.88 0c0-2.9-.53-5.05-1.58-6.46-1.05-1.41-2.56-2.11-4.5-2.11-1.96 0-3.47.7-4.53 2.11s-1.59 3.56-1.59 6.46c0 2.8.53 4.93 1.59 6.38 1.06 1.45 2.57 2.17 4.53 2.17 1.94 0 3.43-.71 4.5-2.13 1.05-1.42 1.58-3.56 1.58-6.42z" id="path1122" fill="#fff"/><path class="st0" d="M644.46 107.5h-3.76V94.77c0-1.03-.05-1.98-.15-2.87-.1-.89-.29-1.6-.57-2.13-.31-.56-.73-.98-1.28-1.25s-1.29-.41-2.24-.41c-.93 0-1.9.25-2.89.75-1 .5-1.97 1.15-2.91 1.95v16.7h-3.76V85.14h3.76v2.48c1.12-1 2.23-1.77 3.32-2.3 1.09-.53 2.25-.8 3.46-.8 2.2 0 3.92.72 5.16 2.17 1.24 1.45 1.86 3.55 1.86 6.3z" id="path1124" fill="#fff"/><path class="st0" d="M682.88 107.5h-18.4v-4.18c1.32-1.25 2.57-2.46 3.74-3.6a83.51 83.51 0 0 0 3.44-3.58c2.27-2.5 3.82-4.49 4.64-6 .83-1.5 1.24-3.05 1.24-4.65 0-.83-.13-1.55-.39-2.18-.26-.63-.62-1.15-1.07-1.56-.47-.4-1.01-.7-1.62-.9-.61-.2-1.29-.3-2.02-.3-.71 0-1.43.09-2.15.27-.73.18-1.42.4-2.09.67-.56.23-1.1.5-1.62.82-.52.32-.94.59-1.26.82h-.22v-4.24c.83-.41 1.98-.82 3.45-1.21 1.47-.39 2.87-.59 4.19-.59 2.78 0 4.95.74 6.53 2.21 1.57 1.48 2.36 3.47 2.36 6 0 1.16-.14 2.24-.41 3.22-.27.99-.65 1.9-1.13 2.74-.49.87-1.09 1.73-1.78 2.58-.69.85-1.43 1.7-2.2 2.52a87.024 87.024 0 0 1-4.19 4.24c-1.54 1.47-2.77 2.63-3.69 3.48h14.65z" id="path1126" fill="#fff"/><path class="st0" d="M706.63 92.59c0 5.35-.78 9.28-2.33 11.78s-3.95 3.75-7.2 3.75c-3.28 0-5.69-1.27-7.23-3.82s-2.3-6.44-2.3-11.67c0-5.38.78-9.31 2.33-11.8s3.95-3.73 7.2-3.73c3.28 0 5.69 1.29 7.23 3.86 1.53 2.57 2.3 6.45 2.3 11.63zm-5.12 9.09c.39-.99.66-2.24.82-3.74.16-1.51.24-3.29.24-5.35 0-2.04-.08-3.82-.24-5.33-.16-1.51-.44-2.76-.84-3.76-.4-1.01-.95-1.78-1.65-2.31s-1.61-.79-2.73-.79c-1.11 0-2.02.26-2.73.79s-1.28 1.31-1.69 2.35c-.4 1.01-.67 2.3-.82 3.84-.15 1.55-.22 3.3-.22 5.25 0 2.08.06 3.82.19 5.23.13 1.4.4 2.66.83 3.76.39 1.03.94 1.82 1.65 2.37s1.64.83 2.79.83c1.11 0 2.02-.26 2.73-.79s1.26-1.31 1.67-2.35z" id="path1128" fill="#fff"/><path class="st0" d="M730.1 107.5h-18.4v-4.18c1.32-1.25 2.57-2.46 3.74-3.6a83.51 83.51 0 0 0 3.44-3.58c2.27-2.5 3.82-4.49 4.64-6 .83-1.5 1.24-3.05 1.24-4.65 0-.83-.13-1.55-.39-2.18-.26-.63-.62-1.15-1.07-1.56-.47-.4-1.01-.7-1.62-.9-.61-.2-1.29-.3-2.02-.3-.71 0-1.43.09-2.15.27-.73.18-1.42.4-2.09.67-.56.23-1.1.5-1.62.82-.52.32-.94.59-1.26.82h-.22v-4.24c.83-.41 1.98-.82 3.45-1.21 1.47-.39 2.87-.59 4.19-.59 2.78 0 4.95.74 6.53 2.21 1.57 1.48 2.36 3.47 2.36 6 0 1.16-.14 2.24-.41 3.22-.27.99-.65 1.9-1.13 2.74-.49.87-1.09 1.73-1.78 2.58-.69.85-1.43 1.7-2.2 2.52a87.024 87.024 0 0 1-4.19 4.24c-1.54 1.47-2.77 2.63-3.69 3.48h14.65z" id="path1130" fill="#fff"/><path class="st0" d="M753.85 92.59c0 5.35-.78 9.28-2.33 11.78s-3.95 3.75-7.2 3.75c-3.28 0-5.69-1.27-7.23-3.82s-2.3-6.44-2.3-11.67c0-5.38.78-9.31 2.33-11.8s3.95-3.73 7.2-3.73c3.28 0 5.69 1.29 7.23 3.86s2.3 6.45 2.3 11.63zm-5.12 9.09c.39-.99.66-2.24.82-3.74.16-1.51.24-3.29.24-5.35 0-2.04-.08-3.82-.24-5.33-.16-1.51-.44-2.76-.84-3.76-.4-1.01-.95-1.78-1.65-2.31s-1.61-.79-2.73-.79c-1.11 0-2.02.26-2.73.79s-1.28 1.31-1.69 2.35c-.4 1.01-.67 2.3-.82 3.84-.15 1.55-.22 3.3-.22 5.25 0 2.08.06 3.82.19 5.23.13 1.4.4 2.66.83 3.76.39 1.03.94 1.82 1.65 2.37s1.64.83 2.79.83c1.11 0 2.02-.26 2.73-.79s1.27-1.31 1.67-2.35z" id="path1132" fill="#fff"/><path class="st0" d="M387.88 128.22H374v8.41h13.29v3.52H374v14.35h-3.96v-29.81h17.84z" id="path1134" fill="#fff"/><path class="st0" d="M404.2 136.19h-.2c-.28-.08-.58-.13-.89-.15-.31-.02-.69-.03-1.13-.03-1.01 0-2.02.22-3.02.66-1 .44-1.95 1.09-2.84 1.96v15.88h-3.76v-22.36h3.76v3.32c1.37-1.21 2.57-2.07 3.59-2.57s2.01-.75 2.97-.75c.39 0 .68.01.87.03.19.02.41.05.65.09z" id="path1136" fill="#fff"/><path class="st0" d="M420.15 152.12c-.31.23-.72.54-1.23.95-.51.41-1.01.73-1.49.97-.67.35-1.31.61-1.93.8-.62.19-1.49.28-2.61.28-.92 0-1.8-.17-2.62-.52a6.63 6.63 0 0 1-2.18-1.46c-.6-.61-1.08-1.37-1.44-2.27-.36-.9-.54-1.85-.54-2.85 0-1.55.33-2.87.98-3.95.65-1.09 1.69-1.95 3.1-2.59 1.25-.57 2.74-.97 4.44-1.19 1.71-.22 3.55-.38 5.53-.49v-.72c0-.88-.13-1.59-.4-2.13-.27-.54-.64-.96-1.12-1.25-.48-.31-1.07-.51-1.76-.61-.69-.1-1.41-.15-2.14-.15-.87 0-1.89.13-3.06.39-1.17.26-2.35.64-3.52 1.13h-.22v-3.82c.69-.2 1.69-.42 2.98-.66 1.29-.24 2.58-.36 3.84-.36 1.53 0 2.83.12 3.88.36 1.05.24 2 .67 2.84 1.3.81.61 1.42 1.41 1.82 2.38.4.97.6 2.16.6 3.56v15.29h-3.74v-2.39zm0-3.12v-6.21c-.89.08-2.03.19-3.39.33-1.37.14-2.47.34-3.31.59-1 .31-1.83.78-2.48 1.41-.65.63-.98 1.52-.98 2.65 0 1.28.36 2.25 1.08 2.9.72.65 1.77.98 3.16.98 1.19 0 2.26-.26 3.22-.77.96-.51 1.86-1.13 2.7-1.88z" id="path1138" fill="#fff"/><path class="st0" d="M455.79 154.5v-12.93c0-1.03-.04-1.98-.12-2.85-.08-.87-.25-1.56-.5-2.05-.27-.53-.65-.93-1.14-1.18-.49-.25-1.16-.38-2-.38-.77 0-1.6.24-2.49.71-.89.47-1.81 1.16-2.75 2.05.01.23.03.5.05.81.02.31.03.68.03 1.11v14.71h-3.76v-12.93c0-1.03-.04-1.98-.12-2.85-.08-.87-.25-1.56-.5-2.05-.27-.53-.65-.93-1.14-1.18-.49-.25-1.16-.38-2-.38-.81 0-1.67.25-2.56.76-.89.51-1.76 1.16-2.6 1.94v16.7h-3.76v-22.36h3.76v2.48c.99-.99 1.96-1.75 2.93-2.29.97-.54 2.03-.81 3.19-.81 1.32 0 2.49.3 3.51.9 1.02.6 1.8 1.59 2.33 2.96 1.13-1.27 2.24-2.23 3.32-2.88 1.08-.65 2.26-.98 3.52-.98.96 0 1.83.15 2.62.45.79.3 1.47.78 2.06 1.45.6.68 1.06 1.53 1.39 2.54.33 1.01.49 2.29.49 3.82v14.71z" id="path1140" fill="#fff"/><path class="st0" d="M475.78 155.02c-3.56 0-6.33-1-8.3-3.01-1.97-2.01-2.95-4.86-2.95-8.56 0-3.64.95-6.54 2.86-8.7 1.91-2.16 4.4-3.23 7.49-3.23 1.39 0 2.62.2 3.68.6 1.07.4 2 1.03 2.8 1.88.8.85 1.41 1.9 1.84 3.13.43 1.24.64 2.75.64 4.54v2.04h-15.5c0 2.6.65 4.59 1.96 5.97 1.31 1.37 3.12 2.06 5.43 2.06.83 0 1.64-.09 2.43-.28.79-.19 1.51-.43 2.15-.72.68-.31 1.25-.6 1.72-.89.47-.29.85-.56 1.16-.81h.22v4.1c-.44.17-.99.39-1.64.65-.65.26-1.24.46-1.76.61-.73.2-1.4.35-1.99.46-.58.11-1.33.16-2.24.16zm4.4-14.19c-.03-1.01-.15-1.89-.36-2.62-.21-.73-.52-1.35-.92-1.86-.44-.56-1-.99-1.69-1.28-.69-.29-1.54-.44-2.55-.44-1 0-1.85.15-2.55.45-.7.3-1.34.74-1.91 1.31-.56.59-.99 1.24-1.28 1.95-.29.71-.48 1.54-.56 2.49z" id="path1142" fill="#fff"/><path class="st0" d="M515.99 132.14l-5.67 22.36h-3.48l-5.47-17.24-5.43 17.24h-3.46l-5.73-22.36h3.92l3.94 17.32 5.31-17.32h3.1l5.45 17.32 3.72-17.32z" id="path1144" fill="#fff"/><path class="st0" d="M538.94 143.33c0 3.76-.91 6.67-2.72 8.72-1.81 2.05-4.23 3.07-7.25 3.07-3.11 0-5.56-1.06-7.34-3.17-1.78-2.12-2.67-4.99-2.67-8.62 0-3.74.92-6.64 2.75-8.71 1.83-2.07 4.25-3.1 7.26-3.1 3.02 0 5.43 1.03 7.25 3.09 1.81 2.07 2.72 4.97 2.72 8.72zm-3.88 0c0-2.9-.53-5.05-1.58-6.46-1.05-1.41-2.56-2.11-4.5-2.11-1.96 0-3.47.7-4.54 2.11-1.06 1.41-1.59 3.56-1.59 6.46 0 2.8.53 4.93 1.59 6.38 1.06 1.45 2.57 2.17 4.54 2.17 1.93 0 3.43-.71 4.49-2.13 1.05-1.42 1.59-3.56 1.59-6.42z" id="path1146" fill="#fff"/><path class="st0" d="M555.88 136.19h-.2c-.28-.08-.58-.13-.89-.15-.31-.02-.69-.03-1.13-.03-1.01 0-2.02.22-3.02.66-1 .44-1.95 1.09-2.84 1.96v15.88h-3.76v-22.36h3.76v3.32c1.38-1.21 2.57-2.07 3.59-2.57s2.01-.75 2.97-.75c.39 0 .68.01.87.03.19.02.41.05.65.09z" id="path1148" fill="#fff"/><path class="st0" d="M578.57 154.5h-4.94l-8.35-10.79-1.48 1.44v9.35h-3.76v-31.15h3.76v18.24l8.85-9.45h4.68l-9.19 9.35z" id="path1150" fill="#fff"/><path class="st0" d="M614.85 133.68c0 1.29-.23 2.52-.69 3.67-.46 1.15-1.1 2.14-1.91 2.95a10.31 10.31 0 0 1-3.62 2.3c-1.39.52-3.14.78-5.27.78H600v11.11h-3.96v-29.81h7.49c1.76 0 3.26.15 4.5.44 1.24.29 2.33.77 3.28 1.42 1.11.76 1.97 1.73 2.6 2.89.62 1.19.94 2.6.94 4.25zm-4.13.1c0-1.03-.18-1.92-.53-2.68-.35-.76-.89-1.38-1.61-1.86-.63-.41-1.36-.71-2.19-.88-.83-.17-1.87-.26-3.11-.26H600v11.91h2.7c1.6 0 2.9-.13 3.88-.39.99-.26 1.81-.72 2.46-1.39.59-.6 1.01-1.25 1.28-1.96s.4-1.54.4-2.49z" id="path1152" fill="#fff"/><path class="st0" d="M631.41 136.19h-.2c-.28-.08-.58-.13-.89-.15-.31-.02-.69-.03-1.13-.03-1.01 0-2.02.22-3.02.66-1 .44-1.95 1.09-2.84 1.96v15.88h-3.76v-22.36h3.76v3.32c1.37-1.21 2.57-2.07 3.59-2.57s2.01-.75 2.97-.75c.39 0 .68.01.87.03.19.02.41.05.65.09z" id="path1154" fill="#fff"/><path class="st0" d="M653.76 143.33c0 3.76-.91 6.67-2.72 8.72-1.82 2.05-4.23 3.07-7.25 3.07-3.11 0-5.55-1.06-7.34-3.17-1.78-2.12-2.67-4.99-2.67-8.62 0-3.74.92-6.64 2.75-8.71 1.83-2.07 4.25-3.1 7.26-3.1 3.02 0 5.43 1.03 7.25 3.09 1.82 2.07 2.72 4.97 2.72 8.72zm-3.88 0c0-2.9-.53-5.05-1.58-6.46-1.05-1.41-2.56-2.11-4.5-2.11-1.96 0-3.47.7-4.53 2.11s-1.59 3.56-1.59 6.46c0 2.8.53 4.93 1.59 6.38 1.06 1.45 2.57 2.17 4.53 2.17 1.94 0 3.43-.71 4.5-2.13 1.05-1.42 1.58-3.56 1.58-6.42z" id="path1156" fill="#fff"/><path class="st0" d="M659.66 158.09c.25.11.63.25 1.12.43.49.18 1.05.35 1.68.51.69.17 1.33.31 1.92.42.59.11 1.23.16 1.92.16 1.16 0 2.15-.15 2.95-.46.81-.31 1.44-.73 1.89-1.28.43-.55.73-1.18.9-1.9.17-.72.26-1.54.26-2.46v-1.96c-1.01.88-2.01 1.53-2.98 1.95-.97.42-2.2.63-3.66.63-2.55 0-4.58-.95-6.09-2.84-1.51-1.9-2.26-4.62-2.26-8.17 0-1.86.26-3.5.78-4.94.52-1.43 1.22-2.65 2.1-3.65.84-.96 1.83-1.7 2.98-2.22a8.53 8.53 0 0 1 3.56-.78c1.16 0 2.17.14 3.01.41.85.27 1.7.66 2.55 1.17l.22-.96h3.54v19.82c0 3.79-.83 6.57-2.48 8.35-1.66 1.77-4.18 2.66-7.59 2.66-1.09 0-2.21-.09-3.35-.26-1.14-.17-2.21-.41-3.19-.7v-3.92h.22zm12.65-9.65v-12.27c-.93-.45-1.8-.78-2.59-.97-.79-.19-1.58-.29-2.37-.29-1.91 0-3.41.7-4.5 2.1-1.09 1.4-1.64 3.41-1.64 6.03 0 2.48.42 4.37 1.25 5.67.83 1.29 2.18 1.94 4.05 1.94.97 0 1.98-.19 3.01-.58 1.03-.4 1.96-.94 2.79-1.63z" id="path1158" fill="#fff"/><path class="st0" d="M694.6 136.19h-.2c-.28-.08-.58-.13-.89-.15-.31-.02-.69-.03-1.13-.03-1.01 0-2.02.22-3.02.66-1 .44-1.95 1.09-2.84 1.96v15.88h-3.76v-22.36h3.76v3.32c1.37-1.21 2.57-2.07 3.59-2.57s2.01-.75 2.97-.75c.39 0 .68.01.87.03.19.02.41.05.65.09z" id="path1160" fill="#fff"/><path class="st0" d="M710.55 152.12c-.31.23-.72.54-1.23.95-.51.41-1.01.73-1.49.97-.67.35-1.31.61-1.93.8-.62.19-1.49.28-2.61.28-.92 0-1.79-.17-2.62-.52-.83-.35-1.55-.83-2.18-1.46-.6-.61-1.08-1.37-1.44-2.27-.36-.9-.54-1.85-.54-2.85 0-1.55.33-2.87.98-3.95.65-1.09 1.69-1.95 3.1-2.59 1.25-.57 2.74-.97 4.44-1.19 1.71-.22 3.55-.38 5.53-.49v-.72c0-.88-.13-1.59-.4-2.13-.27-.54-.64-.96-1.12-1.25-.48-.31-1.07-.51-1.76-.61-.69-.1-1.41-.15-2.14-.15-.87 0-1.89.13-3.06.39-1.17.26-2.35.64-3.52 1.13h-.22v-3.82c.69-.2 1.69-.42 2.98-.66 1.29-.24 2.58-.36 3.84-.36 1.53 0 2.83.12 3.88.36 1.05.24 2 .67 2.84 1.3.81.61 1.42 1.41 1.82 2.38.4.97.6 2.16.6 3.56v15.29h-3.74v-2.39zm0-3.12v-6.21c-.89.08-2.03.19-3.39.33-1.37.14-2.47.34-3.31.59-1 .31-1.83.78-2.48 1.41-.65.63-.98 1.52-.98 2.65 0 1.28.36 2.25 1.08 2.9.72.65 1.77.98 3.16.98 1.19 0 2.26-.26 3.22-.77.96-.51 1.85-1.13 2.7-1.88z" id="path1162" fill="#fff"/><path class="st0" d="M746.19 154.5v-12.93c0-1.03-.04-1.98-.12-2.85-.08-.87-.25-1.56-.5-2.05-.27-.53-.65-.93-1.14-1.18-.49-.25-1.16-.38-2-.38-.77 0-1.61.24-2.49.71-.89.47-1.81 1.16-2.75 2.05.01.23.03.5.05.81.02.31.03.68.03 1.11v14.71h-3.76v-12.93c0-1.03-.04-1.98-.12-2.85-.08-.87-.25-1.56-.5-2.05-.27-.53-.65-.93-1.14-1.18-.49-.25-1.16-.38-2-.38-.81 0-1.67.25-2.56.76-.89.51-1.76 1.16-2.6 1.94v16.7h-3.76v-22.36h3.76v2.48c.99-.99 1.96-1.75 2.93-2.29.97-.54 2.03-.81 3.19-.81 1.32 0 2.49.3 3.51.9 1.02.6 1.8 1.59 2.33 2.96 1.13-1.27 2.24-2.23 3.32-2.88a6.7 6.7 0 0 1 3.52-.98c.96 0 1.83.15 2.62.45.79.3 1.47.78 2.06 1.45.6.68 1.06 1.53 1.39 2.54.33 1.01.49 2.29.49 3.82v14.71z" id="path1164" fill="#fff"/><path class="st0" d="M781.85 154.5v-12.93c0-1.03-.04-1.98-.12-2.85-.08-.87-.25-1.56-.5-2.05-.27-.53-.65-.93-1.14-1.18-.49-.25-1.16-.38-2-.38-.77 0-1.61.24-2.49.71-.89.47-1.81 1.16-2.75 2.05.01.23.03.5.05.81.02.31.03.68.03 1.11v14.71h-3.76v-12.93c0-1.03-.04-1.98-.12-2.85-.08-.87-.25-1.56-.5-2.05-.27-.53-.65-.93-1.14-1.18-.49-.25-1.16-.38-2-.38-.81 0-1.67.25-2.56.76-.89.51-1.76 1.16-2.6 1.94v16.7h-3.76v-22.36h3.76v2.48c.99-.99 1.96-1.75 2.93-2.29.97-.54 2.03-.81 3.19-.81 1.32 0 2.49.3 3.51.9 1.02.6 1.8 1.59 2.33 2.96 1.13-1.27 2.24-2.23 3.32-2.88a6.7 6.7 0 0 1 3.52-.98c.96 0 1.83.15 2.62.45.79.3 1.47.78 2.06 1.45.6.68 1.06 1.53 1.39 2.54.33 1.01.49 2.29.49 3.82v14.71z" id="path1166" fill="#fff"/><path class="st0" d="M801.84 155.02c-3.56 0-6.33-1-8.3-3.01-1.97-2.01-2.95-4.86-2.95-8.56 0-3.64.95-6.54 2.86-8.7 1.91-2.16 4.4-3.23 7.49-3.23 1.39 0 2.62.2 3.68.6 1.07.4 2 1.03 2.8 1.88.8.85 1.41 1.9 1.84 3.13.43 1.24.64 2.75.64 4.54v2.04h-15.5c0 2.6.65 4.59 1.96 5.97 1.31 1.37 3.12 2.06 5.43 2.06.83 0 1.64-.09 2.43-.28.79-.19 1.51-.43 2.15-.72.68-.31 1.25-.6 1.72-.89.47-.29.85-.56 1.16-.81h.22v4.1c-.44.17-.99.39-1.64.65-.65.26-1.24.46-1.76.61-.73.2-1.4.35-1.99.46-.58.11-1.33.16-2.24.16zm4.4-14.19c-.03-1.01-.15-1.89-.36-2.62-.21-.73-.52-1.35-.92-1.86-.44-.56-1-.99-1.69-1.28-.69-.29-1.54-.44-2.55-.44-1 0-1.85.15-2.55.45-.7.3-1.34.74-1.91 1.31-.56.59-.99 1.24-1.28 1.95-.29.71-.48 1.54-.56 2.49z" id="path1168" fill="#fff"/><path class="st0" d="M388.14 190.33c0 3.76-.91 6.67-2.72 8.72-1.82 2.05-4.23 3.07-7.25 3.07-3.11 0-5.56-1.06-7.34-3.17-1.78-2.12-2.67-4.99-2.67-8.62 0-3.74.92-6.64 2.75-8.71 1.83-2.07 4.25-3.1 7.26-3.1 3.02 0 5.43 1.03 7.25 3.09 1.81 2.07 2.72 4.97 2.72 8.72zm-3.89 0c0-2.9-.53-5.05-1.58-6.46-1.05-1.41-2.56-2.11-4.5-2.11-1.96 0-3.47.7-4.53 2.11s-1.59 3.56-1.59 6.46c0 2.8.53 4.93 1.59 6.38 1.06 1.45 2.57 2.17 4.53 2.17 1.94 0 3.43-.71 4.49-2.13s1.59-3.56 1.59-6.42z" id="path1170" fill="#fff"/><path class="st0" d="M405 173.96h-.2c-.33-.12-.81-.24-1.44-.35-.63-.11-1.19-.17-1.68-.17-1.59 0-2.72.36-3.39 1.07-.67.71-1.01 2-1.01 3.87v.76h6.23v3.12h-6.11v19.24h-3.76v-19.24h-2.54v-3.12h2.54v-.74c0-2.7.65-4.75 1.94-6.15 1.29-1.4 3.15-2.1 5.57-2.1.69 0 1.37.04 2.04.11.67.07 1.27.16 1.82.25v3.45z" id="path1172" fill="#fff"/><path class="st0" d="M428.32 201.94c-2.06 0-3.66-.58-4.8-1.75-1.15-1.17-1.72-3.01-1.72-5.54v-12.39h-2.54v-3.12h2.54v-6.43h3.76v6.43h6.93v3.12h-6.93v10.63c0 1.13.02 2.01.06 2.62.04.61.19 1.19.46 1.72.23.47.59.82 1.1 1.05.51.23 1.19.35 2.06.35.61 0 1.21-.09 1.78-.27.57-.18.99-.33 1.24-.45h.22v3.38c-.71.2-1.42.36-2.15.47-.72.13-1.39.18-2.01.18z" id="path1174" fill="#fff"/><path class="st0" d="M454.08 201.5h-3.76v-12.73c0-1.03-.05-1.99-.15-2.87-.1-.89-.29-1.6-.57-2.13-.31-.56-.73-.98-1.28-1.25s-1.29-.41-2.24-.41c-.93 0-1.9.25-2.89.75-.99.5-1.97 1.15-2.91 1.95v16.7h-3.76v-31.15h3.76v11.27c1.12-1 2.23-1.77 3.32-2.3 1.09-.53 2.25-.8 3.46-.8 2.2 0 3.92.72 5.17 2.17 1.24 1.45 1.86 3.55 1.86 6.3v14.5z" id="path1176" fill="#fff"/><path class="st0" d="M470.3 202.02c-3.56 0-6.33-1-8.3-3.01-1.97-2.01-2.95-4.86-2.95-8.56 0-3.64.95-6.54 2.86-8.7 1.91-2.16 4.4-3.23 7.49-3.23 1.39 0 2.62.2 3.68.6 1.07.4 2 1.03 2.8 1.88.8.85 1.41 1.9 1.84 3.13.43 1.24.64 2.75.64 4.54v2.04h-15.5c0 2.6.65 4.59 1.96 5.97 1.31 1.37 3.12 2.06 5.43 2.06.83 0 1.64-.09 2.43-.28.79-.19 1.51-.43 2.15-.72.68-.31 1.25-.6 1.72-.89.47-.29.85-.56 1.16-.81h.22v4.1c-.44.17-.99.39-1.64.65-.65.26-1.24.46-1.76.61-.73.2-1.4.35-1.99.46-.58.11-1.33.16-2.24.16zm4.41-14.19c-.03-1.01-.15-1.89-.36-2.62-.21-.73-.52-1.35-.92-1.86-.44-.56-1-.99-1.69-1.28-.69-.29-1.54-.44-2.55-.44-1 0-1.85.15-2.55.45-.7.3-1.34.74-1.91 1.31-.56.59-.99 1.24-1.28 1.95-.29.71-.48 1.54-.56 2.49z" id="path1178" fill="#fff"/><path class="st0" d="M497.75 201.5v-29.81h18.64v3.52h-14.67v8.17h13.67v3.52h-13.67v11.07h14.67v3.52h-18.64z" id="path1180" fill="#fff"/><path class="st0" d="M539.1 201.5h-3.76v-2.48c-1.16 1.01-2.26 1.79-3.3 2.31-1.04.53-2.2.79-3.48.79-.97 0-1.89-.16-2.75-.48a5.8 5.8 0 0 1-2.25-1.52c-.64-.69-1.14-1.57-1.49-2.62-.35-1.05-.53-2.33-.53-3.84v-14.51h3.76v12.73c0 1.19.04 2.17.13 2.95.09.78.28 1.46.59 2.05.31.57.72 1 1.25 1.26.53.27 1.29.4 2.27.4.92 0 1.9-.26 2.94-.78s2-1.16 2.86-1.92v-16.7h3.76z" id="path1182" fill="#fff"/><path class="st0" d="M557.62 183.19h-.2c-.28-.08-.58-.13-.89-.15-.31-.02-.69-.03-1.13-.03-1.01 0-2.02.22-3.02.66-1 .44-1.95 1.09-2.84 1.96v15.88h-3.76v-22.36h3.76v3.32c1.37-1.21 2.57-2.07 3.59-2.57s2.01-.75 2.97-.75c.39 0 .68.01.87.03.19.02.41.05.65.09z" id="path1184" fill="#fff"/><path class="st0" d="M579.97 190.33c0 3.76-.91 6.67-2.72 8.72-1.82 2.05-4.23 3.07-7.25 3.07-3.11 0-5.55-1.06-7.34-3.17-1.78-2.12-2.67-4.99-2.67-8.62 0-3.74.92-6.64 2.75-8.71 1.83-2.07 4.25-3.1 7.26-3.1 3.02 0 5.43 1.03 7.25 3.09 1.82 2.07 2.72 4.97 2.72 8.72zm-3.88 0c0-2.9-.53-5.05-1.58-6.46-1.05-1.41-2.56-2.11-4.5-2.11-1.96 0-3.47.7-4.53 2.11s-1.59 3.56-1.59 6.46c0 2.8.53 4.93 1.59 6.38 1.06 1.45 2.57 2.17 4.53 2.17 1.94 0 3.43-.71 4.5-2.13 1.05-1.42 1.58-3.56 1.58-6.42z" id="path1186" fill="#fff"/><path class="st0" d="M603.83 189.73c0 3.72-.89 6.69-2.67 8.9-1.78 2.21-4.03 3.31-6.76 3.31-1.11 0-2.09-.13-2.94-.38-.85-.25-1.73-.65-2.62-1.18v9.37h-3.76v-30.61h3.76v2.34c.93-.84 1.97-1.54 3.11-2.11 1.14-.57 2.38-.85 3.73-.85 2.56 0 4.56 1.01 6 3.04 1.43 2.03 2.15 4.76 2.15 8.17zm-3.89.42c0-2.55-.41-4.53-1.22-5.94-.81-1.41-2.14-2.11-3.96-2.11-1.07 0-2.1.24-3.09.71-1 .47-1.94 1.08-2.83 1.83v12.67c.99.48 1.83.81 2.53.98.7.17 1.5.26 2.41.26 1.95 0 3.46-.71 4.54-2.14 1.08-1.42 1.62-3.51 1.62-6.26z" id="path1188" fill="#fff"/><path class="st0" d="M618.67 202.02c-3.56 0-6.33-1-8.3-3.01-1.97-2.01-2.95-4.86-2.95-8.56 0-3.64.95-6.54 2.86-8.7 1.91-2.16 4.4-3.23 7.49-3.23 1.39 0 2.62.2 3.68.6 1.07.4 2 1.03 2.8 1.88.8.85 1.41 1.9 1.84 3.13.43 1.24.64 2.75.64 4.54v2.04h-15.5c0 2.6.65 4.59 1.96 5.97 1.31 1.37 3.12 2.06 5.43 2.06.83 0 1.64-.09 2.43-.28.79-.19 1.51-.43 2.15-.72.68-.31 1.25-.6 1.72-.89.47-.29.85-.56 1.16-.81h.22v4.1c-.44.17-.99.39-1.64.65-.65.26-1.24.46-1.76.61-.73.2-1.4.35-1.99.46-.58.11-1.33.16-2.24.16zm4.4-14.19c-.03-1.01-.15-1.89-.36-2.62-.21-.73-.52-1.35-.92-1.86-.44-.56-1-.99-1.69-1.28-.69-.29-1.54-.44-2.55-.44-1 0-1.85.15-2.55.45-.7.3-1.34.74-1.91 1.31-.56.59-.99 1.24-1.28 1.95-.29.71-.48 1.54-.56 2.49z" id="path1190" fill="#fff"/><path class="st0" d="M644.26 199.12c-.31.23-.72.54-1.23.95-.51.41-1.01.73-1.49.97-.67.35-1.31.61-1.93.8-.62.19-1.49.28-2.61.28-.92 0-1.79-.17-2.62-.52-.83-.35-1.55-.83-2.18-1.46-.6-.61-1.08-1.37-1.44-2.27-.36-.9-.54-1.85-.54-2.85 0-1.55.33-2.87.98-3.95.65-1.09 1.69-1.95 3.1-2.59 1.25-.57 2.74-.97 4.44-1.19 1.71-.22 3.55-.38 5.53-.49v-.72c0-.88-.13-1.59-.4-2.13-.27-.54-.64-.96-1.12-1.25-.48-.31-1.07-.51-1.76-.61-.69-.1-1.41-.15-2.14-.15-.87 0-1.89.13-3.06.39-1.17.26-2.35.64-3.52 1.13h-.22v-3.82c.69-.2 1.69-.42 2.98-.66 1.29-.24 2.58-.36 3.84-.36 1.53 0 2.83.12 3.88.36 1.05.24 2 .67 2.84 1.3.81.61 1.42 1.41 1.82 2.38.4.97.6 2.16.6 3.56v15.29h-3.74v-2.39zm0-3.12v-6.21c-.89.08-2.03.19-3.39.33-1.37.14-2.47.34-3.31.59-1 .31-1.83.78-2.48 1.41-.65.63-.98 1.52-.98 2.65 0 1.28.36 2.25 1.08 2.9.72.65 1.77.98 3.16.98 1.19 0 2.26-.26 3.22-.77.96-.51 1.86-1.13 2.7-1.88z" id="path1192" fill="#fff"/><path class="st0" d="M672.1 201.5h-3.76v-12.73c0-1.03-.05-1.99-.15-2.87-.1-.89-.29-1.6-.57-2.13-.31-.56-.73-.98-1.28-1.25s-1.29-.41-2.24-.41c-.93 0-1.9.25-2.89.75-1 .5-1.97 1.15-2.91 1.95v16.7h-3.76v-22.36h3.76v2.48c1.12-1 2.23-1.77 3.32-2.3 1.09-.53 2.25-.8 3.46-.8 2.2 0 3.92.72 5.16 2.17 1.24 1.45 1.86 3.55 1.86 6.3z" id="path1194" fill="#fff"/><path class="st0" d="M703.37 202.12c-1.75 0-3.28-.23-4.58-.69-1.31-.46-2.42-1.14-3.34-2.05a8.617 8.617 0 0 1-2.2-3.73c-.43-1.45-.64-3.23-.64-5.36v-18.6h3.96v18.6c0 1.38.09 2.53.26 3.47.17.94.51 1.79 1.02 2.53.53.8 1.26 1.41 2.17 1.82.91.41 2.03.62 3.35.62 1.24 0 2.34-.21 3.3-.62.96-.41 1.71-1.02 2.24-1.82.49-.76.83-1.6 1.01-2.52.18-.92.27-2.05.27-3.38v-18.7h3.96v18.6c0 2.07-.21 3.84-.63 5.33-.42 1.48-1.16 2.74-2.21 3.76-.95.92-2.05 1.61-3.31 2.06-1.26.46-2.8.68-4.63.68z" id="path1196" fill="#fff"/><path class="st0" d="M738.35 201.5h-3.76v-12.73c0-1.03-.05-1.99-.15-2.87-.1-.89-.29-1.6-.57-2.13-.31-.56-.73-.98-1.28-1.25s-1.29-.41-2.24-.41c-.93 0-1.9.25-2.89.75-1 .5-1.97 1.15-2.91 1.95v16.7h-3.76v-22.36h3.76v2.48c1.12-1 2.23-1.77 3.32-2.3 1.09-.53 2.25-.8 3.46-.8 2.2 0 3.92.72 5.16 2.17 1.24 1.45 1.86 3.55 1.86 6.3z" id="path1198" fill="#fff"/><path class="st0" d="M748.97 175.4h-4.28v-3.9h4.28zm-.26 26.1h-3.76v-22.36h3.76z" id="path1200" fill="#fff"/><path class="st0" d="M773.86 190.33c0 3.76-.91 6.67-2.72 8.72-1.82 2.05-4.23 3.07-7.25 3.07-3.11 0-5.55-1.06-7.34-3.17-1.78-2.12-2.67-4.99-2.67-8.62 0-3.74.92-6.64 2.75-8.71 1.83-2.07 4.25-3.1 7.26-3.1 3.02 0 5.43 1.03 7.25 3.09 1.81 2.07 2.72 4.97 2.72 8.72zm-3.88 0c0-2.9-.53-5.05-1.58-6.46-1.05-1.41-2.56-2.11-4.5-2.11-1.96 0-3.47.7-4.53 2.11s-1.59 3.56-1.59 6.46c0 2.8.53 4.93 1.59 6.38 1.06 1.45 2.57 2.17 4.53 2.17 1.94 0 3.43-.71 4.5-2.13 1.05-1.42 1.58-3.56 1.58-6.42z" id="path1202" fill="#fff"/><path class="st0" d="M796.53 201.5h-3.76v-12.73c0-1.03-.05-1.99-.15-2.87-.1-.89-.29-1.6-.57-2.13-.31-.56-.73-.98-1.28-1.25s-1.29-.41-2.24-.41c-.93 0-1.9.25-2.89.75-1 .5-1.97 1.15-2.91 1.95v16.7h-3.76v-22.36h3.76v2.48c1.12-1 2.23-1.77 3.32-2.3 1.09-.53 2.25-.8 3.46-.8 2.2 0 3.92.72 5.16 2.17 1.24 1.45 1.86 3.55 1.86 6.3z" id="path1204" fill="#fff"/></g></g></svg>

